<?xml version="1.0" standalone="yes"?>
<svg xmlns="http://www.w3.org/2000/svg" width="2600" height="2504">
<path style="fill:#e3f2e7; stroke:none;" d="M0 0L0 2504L2600 2504L2600 0L0 0z"/>
<path style="fill:#121212; stroke:none;" d="M1279 8.42432C1250.75 12.1353 1221.47 11.3223 1193 14.1689C1127.29 20.738 1061.75 32.9065 998 50.1514C733.22 121.777 495.564 282.442 330.895 502C63.7335 858.216 8.85156 1343.26 189.861 1750C236.174 1854.07 297.335 1951.51 370.247 2039C443.622 2127.04 529.666 2206.13 625 2270C740.193 2347.17 866.699 2406.8 1001 2442.12C1159.84 2483.88 1325.38 2494.1 1488 2472.72C1896.28 2419.03 2263.23 2151.59 2439.22 1779C2523.14 1601.34 2563.79 1406.23 2558.99 1210C2551.25 893.754 2415.21 578.221 2186 359.039C2037.15 216.699 1858.31 111.12 1660 54.5786C1571.9 29.4607 1482.13 16.1497 1391 9.91064C1355.1 7.45312 1314.83 3.71802 1279 8.42432z"/>
<path style="fill:#e3f2e7; stroke:none;" d="M1273 57.4243C1247.01 60.8379 1220.18 60.5518 1194 63.1689C1135.43 69.0242 1076.92 79.9182 1020 94.8843C764.377 162.098 535.254 314.796 374.884 525C135.361 838.955 67.9285 1263.21 197.344 1636C238.913 1755.74 300.03 1868.26 376.884 1969C456.451 2073.29 553.872 2163.89 663 2236.65C772.829 2309.86 895.983 2365.21 1024 2397.63C1172.2 2435.15 1326.54 2444.63 1478 2424.72C1862.78 2374.12 2214.98 2127.35 2385.74 1777C2460.59 1623.44 2502.5 1458.53 2509.96 1288C2524.17 963.211 2394.02 641.708 2167.99 410C2018.45 256.71 1822.64 145.036 1615 93.1265C1535.84 73.3354 1455.4 61.5229 1374 57.9607C1341.48 56.5374 1305.37 53.1719 1273 57.4243z"/>
<path style="fill:#121212; stroke:none;" d="M1300 102.424C1271.47 106.171 1241.76 104.386 1213 107.17C1147.62 113.497 1082.34 124.818 1019 142.424C731.162 222.436 481.65 413.158 331.424 672C169.547 950.918 133.779 1294.53 233.67 1601C274.309 1725.68 336.813 1843.54 417.424 1947C503.383 2057.33 608.787 2150.78 728 2223.81C825.741 2283.69 934.354 2329.65 1046 2356.12C1184.79 2389.02 1328.51 2398.32 1470 2379.72C1603.85 2362.12 1734.54 2321.25 1854 2258.22C2229.47 2060.1 2470.04 1658.38 2465 1234C2463.04 1069.36 2425.63 905.071 2355.22 756C2221.41 472.726 1969.29 251.958 1671 156.656C1581.94 128.202 1490.15 111.288 1397 104.911C1365.8 102.775 1331.16 98.3313 1300 102.424z"/>
<path style="fill:#e3f2e7; stroke:none;" d="M1281 114.424C1248.43 118.702 1214.82 118.639 1182 122.166C1122.35 128.576 1062.53 141.614 1005 158.424C733.809 237.665 498.835 418.455 352.203 660C180.08 943.536 141.54 1300.58 250.344 1614C288.225 1723.12 342.342 1826.01 410.884 1919C477.379 2009.21 557.786 2089.62 648 2156.12C773.301 2248.47 915.699 2313.25 1067 2349.12C1196.3 2379.77 1333.47 2386.01 1465 2368.72C1585.56 2352.87 1703.45 2318.75 1813 2265.74C2061.45 2145.53 2259.83 1935.38 2366.58 1681C2420.05 1553.57 2446.94 1417.56 2452.96 1280C2466.38 973.433 2339.89 668.245 2126.99 450C1992.55 312.192 1818.93 210.304 1634 157.579C1553.04 134.496 1470.79 121.647 1387 115.911C1352.98 113.582 1314.97 109.963 1281 114.424z"/>
<path style="fill:#121212; stroke:none;" d="M1286 278C1278.54 295.93 1267.72 312.514 1259.26 330C1242.01 365.641 1227.39 402.282 1215.34 440C1175.34 565.216 1165 695.45 1165 826L1166 826C1166 706.11 1191.58 580.693 1231.69 468C1241.12 441.501 1251.74 415.199 1264.25 390C1271.68 375.031 1282.97 359.882 1288 344L1290 344C1295.9 364.477 1309.28 384.224 1317.58 404C1333.79 442.637 1347.46 482.464 1358.12 523C1402.65 692.374 1403.34 873.966 1361.37 1044C1352.58 1079.65 1343.29 1115.14 1331.67 1150C1326.85 1164.45 1323.1 1180.52 1316 1194C1248.37 986.161 1086.41 803.671 875 737.974C830.834 724.25 780.664 708.386 734 708C735.238 736.764 744.656 768.117 751.627 796C770.646 872.077 799.021 945.285 840.576 1012C860.186 1043.48 885.318 1082.39 916 1104C899.034 1079.89 878.022 1059.16 862.053 1034C822.455 971.599 795.993 902.465 778.127 831C770.647 801.082 759.394 765.021 761 734C777.491 740.187 796.021 742.463 813 747.424C851.532 758.683 890.394 772.638 926 791.32C1050.17 856.469 1145.73 958.96 1208.25 1084C1221.25 1110 1232.25 1136.79 1242.42 1164C1247.88 1178.58 1254.73 1194.56 1257 1210C1217.93 1187.2 1170.76 1176.19 1127 1166.58C1007.91 1140.42 881.527 1145.39 767 1188.58C733.437 1201.23 701.473 1217.3 671 1236.19C659.276 1243.46 644.963 1250.46 635 1260C653.05 1271.9 673.981 1280.02 693 1290.31C814.558 1356.05 960.977 1390.93 1098 1361.79C1128.95 1355.21 1156.94 1344.08 1186 1332L1186 1331C1151.99 1340.28 1119.27 1348.47 1084 1351.83C1003.84 1359.46 920.344 1343.15 845 1316.31C815.514 1305.8 787.126 1292.35 759 1278.74C747.154 1273.01 735.476 1263.95 723 1260L723 1258C733.287 1255.04 743.075 1249.11 753 1245.01C774.553 1236.12 796.481 1228.24 819 1222.15C903.934 1199.18 995.584 1196.84 1082 1212.42C1137.9 1222.5 1193.33 1237.11 1244 1263.26C1265.2 1274.2 1283.83 1289.01 1304 1301.57C1330.85 1318.3 1359.16 1332.69 1389 1343.31C1567.6 1406.87 1762.76 1363.53 1923 1270C1907.6 1255.58 1880.88 1246.19 1862 1236.75C1823.03 1217.27 1783 1199.76 1741 1187.86C1722.14 1182.51 1701.72 1177.05 1682 1177L1682 1178C1700.39 1179.46 1719.13 1188.03 1736 1194.99C1769.68 1208.89 1801.39 1226.27 1833 1244.28C1845.1 1251.18 1856.41 1260.05 1869 1266L1869 1267C1752.6 1312.15 1631.45 1343.71 1506 1323.08C1477.05 1318.32 1448.46 1311.24 1421 1300.81C1411.59 1297.23 1398.19 1294.26 1391 1287C1408.2 1284.46 1426.01 1275.61 1442 1269.01C1479.15 1253.68 1514.95 1235.41 1549 1214.05C1673.04 1136.25 1767.92 1019.93 1819.57 883C1841.34 825.286 1852.64 766.318 1864 706C1827.86 713.008 1791.57 718.412 1756 728.152C1690.9 745.976 1627.07 774.033 1572 813.291C1545.54 832.155 1515.74 854.075 1497 881C1506.83 874.075 1514.92 864.107 1524 856.156C1538.63 843.347 1554.73 831.964 1571 821.344C1625.37 785.848 1686.3 762.801 1749 747.127C1777.13 740.095 1807.9 732.6 1837 732C1800.13 910.626 1689.87 1072.34 1531 1163.42C1492.32 1185.6 1448.77 1208.87 1405 1219C1410.49 1192.45 1419.28 1166.46 1425.35 1140C1437.73 1086.05 1447.5 1031.11 1452.83 976C1472.82 769.396 1441.66 555.825 1345.74 370C1329.01 337.583 1308.46 308.08 1288 278L1286 278M1245 1471L1245 1539L1244 1539C1236.6 1513.36 1203.04 1504.53 1181 1516.32C1165.08 1524.84 1155.95 1543.07 1157.09 1561C1158.22 1578.72 1167.04 1595.84 1184 1603.12C1205.13 1612.2 1239.4 1603.79 1244 1578L1245 1578L1245 1606L1248 1606L1248 1471L1245 1471M1327.15 1477.14C1322.23 1479.49 1326.06 1486.84 1330.69 1483.95C1334.65 1481.48 1331.52 1475.05 1327.15 1477.14M1545.15 1477.14C1540.23 1479.49 1544.06 1486.84 1548.69 1483.95C1552.65 1481.48 1549.52 1475.05 1545.15 1477.14M818 1478L818 1606L821 1606L821 1487L822 1487L843.579 1526L879 1588L881 1588L921.15 1518L940 1487L940 1606L943 1606L943 1478C934.256 1480.69 927.964 1498.29 923.769 1506C909.692 1531.89 894.968 1557.62 880 1583L821 1478L818 1478M1094 1591C1086.02 1590.86 1077.69 1600.88 1069 1602.71C1040.37 1608.75 1018.16 1586.37 1016 1559L1100 1559C1099.72 1545.23 1095.6 1530.96 1084.91 1521.62C1060.53 1500.31 1023.2 1513.51 1015.16 1544C1011.11 1559.34 1012.95 1577.42 1023.33 1590C1040.18 1610.42 1077.52 1614.34 1094 1591M1475 1589C1460.89 1608.86 1430.13 1607.44 1414.09 1590.96C1399.29 1575.76 1397.4 1549.3 1409.79 1532C1414.08 1526 1420.24 1521.01 1427 1518.04C1434.26 1514.86 1442.18 1513.45 1450 1514.75C1459.87 1516.4 1469.1 1520.69 1475 1529C1479.29 1524.05 1472.14 1519.79 1468 1517.27C1457.51 1510.87 1444.76 1510.04 1433 1512.45C1389.06 1521.45 1385.85 1591.68 1429 1604.56C1441.07 1608.16 1454.69 1607.79 1466 1601.86C1470.46 1599.53 1479.7 1594.42 1475 1589M1631 1536L1630 1536L1630 1512L1627 1512L1627 1606L1630 1606C1630 1584.27 1624.72 1553.75 1635.52 1534C1647.92 1511.32 1685.53 1505.69 1699.64 1530C1711.18 1549.89 1705 1583.81 1705 1606L1708 1606C1708 1582.86 1714.47 1547.73 1702.47 1527C1686.38 1499.2 1641.9 1509.95 1631 1536M1779 1524L1779 1526L1780 1527C1786.59 1524.23 1792.17 1519.54 1799 1517.09C1816.29 1510.89 1839.15 1514.63 1844.1 1535C1845.67 1541.45 1845 1548.41 1845 1555L1809 1555C1803.42 1555 1798.35 1555.31 1793 1557.03C1776.45 1562.35 1770.39 1583.69 1782.21 1596.96C1797.67 1614.32 1835.5 1609.08 1844 1587L1845 1587L1845 1606L1848 1606C1848 1575.33 1861.46 1511.59 1816 1511.02C1810.76 1510.95 1805.06 1511.79 1800 1513.16C1792.06 1515.3 1785.78 1519.57 1779 1524M1327 1512L1327 1606L1330 1606L1330 1512L1327 1512M1545 1512L1545 1606L1548 1606L1548 1512L1545 1512z"/>
<path style="fill:#e3f2e7; stroke:none;" d="M1016 1556L1097 1556C1095.55 1544.6 1092.44 1533.44 1083.91 1525.17C1067.22 1509 1038.66 1511.21 1024.93 1530C1019.27 1537.75 1017.19 1546.65 1016 1556M1198 1514.43C1143.92 1522.19 1151.93 1610.85 1207 1603.71C1262.15 1596.56 1253.93 1506.4 1198 1514.43M1845 1558L1812 1558C1803.65 1558 1795.26 1558.16 1788.02 1562.97C1778.02 1569.6 1776.81 1585.95 1784.53 1594.81C1800.09 1612.69 1833.9 1603.5 1843.18 1584C1846.74 1576.49 1845 1566.13 1845 1558z"/>
<path style="fill:#121212; stroke:none;" d="M903 1967C903 1974.43 904.543 1983.78 902.682 1990.98C899.772 2002.25 878.709 2002.43 870 2000.07C841.654 1992.4 835.338 1954.54 860 1938.55C866.642 1934.24 873.223 1932.99 881 1933C890.653 1933.01 896.457 1937.46 905 1941L906 1940C899.146 1925.65 874.244 1927.3 862 1932.46C832.486 1944.91 833.183 1990.35 863 2001.93C870.325 2004.78 878.185 2005.67 886 2004.83C901.284 2003.18 907 1996.54 907 1982C907 1976.88 908.857 1968.94 903 1967M976 1929L976 2005L980 2005L980 1979C987.759 1979 1004.3 1975.88 1010.7 1980.6C1019.33 1986.97 1022.08 2004.09 1034 2005L1015 1978C1032.94 1971.78 1040.61 1946 1022.99 1934.11C1010.23 1925.5 990.603 1929 976 1929M1121 1929.46C1070.31 1938.59 1086.17 2013.5 1136 2004.54C1186.69 1995.41 1170.83 1920.5 1121 1929.46M1221 1929C1225.52 1948.54 1233.76 1968.03 1240.34 1987C1241.53 1990.41 1244.48 2004.36 1248.91 2004.36C1253.43 2004.36 1255.89 1991.33 1257 1988C1262.84 1970.48 1270.84 1952.99 1275 1935L1276 1935C1278.62 1952.77 1287.82 1972.18 1294.19 1989C1295.33 1992.02 1297.91 2005.7 1302.66 2004.25C1307.29 2002.84 1309.31 1990.06 1310.67 1986C1317.01 1966.96 1323.79 1948.08 1330 1929C1322.9 1930.17 1321.98 1940.08 1320 1946C1314.2 1963.39 1307.88 1980.63 1302 1998C1292.19 1977.02 1283.22 1951.56 1278 1929L1273 1929L1249 1998C1241.66 1981.43 1236.73 1963.2 1231 1946C1229.03 1940.08 1228.1 1930.17 1221 1929M1383 1992C1381.94 1999.19 1391.32 2001.97 1397 2003.57C1409.39 2007.06 1429.08 2006.04 1434.44 1992C1445.63 1962.68 1398.05 1970.72 1389.46 1953.99C1385.02 1945.34 1391.89 1936.93 1400 1934.11C1410.64 1930.41 1421.58 1934.06 1431 1939C1432.05 1931.97 1422.5 1930.31 1417 1929.44C1405.23 1927.59 1388.53 1929.55 1384.64 1943C1376.37 1971.58 1418.72 1963.97 1429.3 1979.04C1435.46 1987.82 1427.9 1997.64 1419 2000.21C1404.86 2004.3 1395.09 1997.36 1383 1992M1499 1929L1499 2005L1503 2005L1503 1968L1556 1968L1556 2005L1560 2005L1560 1929L1556 1929L1556 1965L1503 1965L1503 1929L1499 1929M1655 1929.46C1604.31 1938.59 1620.17 2013.5 1670 2004.54C1720.69 1995.41 1704.83 1920.5 1655 1929.46M1765 1929L1765 2005L1769 2005L1769 1979C1781.64 1979 1798.6 1981.96 1810 1975.47C1825.61 1966.58 1825.8 1941.67 1810 1932.91C1797.29 1925.86 1779.03 1929 1765 1929z"/>
<path style="fill:#e3f2e7; stroke:none;" d="M980 1933L980 1976C992.438 1976 1008.91 1978.68 1019.99 1971.79C1032.82 1963.79 1031.47 1941.96 1018 1935.4C1007.35 1930.22 991.562 1933 980 1933M1120 1933.47C1094.94 1938.16 1085.18 1969.58 1100.53 1988.99C1109.02 1999.72 1124 2002.97 1137 2000.53C1162.06 1995.84 1171.82 1964.42 1156.47 1945.01C1147.98 1934.28 1133 1931.03 1120 1933.47M1654 1933.47C1628.94 1938.16 1619.18 1969.58 1634.53 1988.99C1643.02 1999.72 1658 2002.97 1671 2000.53C1696.06 1995.84 1705.82 1964.42 1690.47 1945.01C1681.98 1934.28 1667 1931.03 1654 1933.47M1769 1933L1769 1976C1781.44 1976 1797.91 1978.68 1808.99 1971.79C1821.82 1963.79 1820.47 1941.96 1807 1935.4C1796.35 1930.22 1780.56 1933 1769 1933z"/>
</svg>
