<?xml version="1.0" standalone="no"?>
<!DOCTYPE svg PUBLIC "-//W3C//DTD SVG 20010904//EN"
 "http://www.w3.org/TR/2001/REC-SVG-20010904/DTD/svg10.dtd">
<svg version="1.0" xmlns="http://www.w3.org/2000/svg"
 width="2600.000000pt" height="2504.000000pt" viewBox="0 0 2600.000000 2504.000000"
 preserveAspectRatio="xMidYMid meet">

<g transform="translate(0.000000,2504.000000) scale(0.100000,-0.100000)"
fill="#000000" stroke="none">
<path d="M12620 24949 c-2065 -104 -4020 -694 -5764 -1741 -866 -520 -1601
-1090 -2324 -1803 -645 -635 -1132 -1223 -1627 -1965 -1600 -2395 -2305 -5266
-2004 -8160 114 -1100 380 -2193 784 -3220 970 -2469 2703 -4555 4965 -5977
942 -592 1977 -1058 3060 -1377 1747 -516 3635 -637 5450 -350 2969 470 5651
2001 7585 4329 1497 1803 2449 3991 2744 6307 66 510 90 868 98 1423 9 645
-23 1202 -103 1805 -399 3018 -1899 5776 -4224 7770 -1535 1316 -3371 2236
-5339 2675 -624 139 -1234 225 -1951 276 -201 14 -1124 20 -1350 8z m1435
-503 c1619 -128 3037 -514 4435 -1207 3134 -1553 5441 -4428 6270 -7814 166
-677 261 -1291 321 -2070 17 -224 23 -1058 10 -1325 -64 -1274 -303 -2446
-738 -3610 -990 -2650 -2901 -4865 -5393 -6249 -375 -208 -878 -448 -1300
-619 -1679 -680 -3523 -965 -5355 -826 -3150 237 -6063 1717 -8134 4133 -2130
2485 -3136 5747 -2780 9021 336 3097 1881 5936 4310 7921 1916 1566 4306 2502
6759 2649 96 6 198 12 225 14 145 10 1184 -3 1370 -18z"/>
<path d="M12800 24010 c-1262 -49 -2433 -282 -3595 -715 -2086 -777 -3914
-2167 -5245 -3990 -152 -209 -419 -612 -561 -850 -976 -1629 -1516 -3425
-1610 -5360 -13 -266 -7 -1005 11 -1245 69 -966 224 -1806 495 -2679 464
-1495 1260 -2915 2300 -4105 1962 -2244 4685 -3626 7637 -3875 703 -60 1472
-53 2178 20 1924 197 3794 898 5380 2017 1806 1275 3207 3039 4030 5077 907
2247 1073 4756 470 7120 -740 2902 -2618 5418 -5200 6968 -1595 956 -3375
1502 -5240 1607 -262 14 -808 20 -1050 10z m931 -120 c1305 -64 2514 -326
3699 -802 1643 -660 3131 -1716 4300 -3053 525 -600 987 -1256 1383 -1965 129
-232 356 -687 460 -925 506 -1157 811 -2353 916 -3597 60 -699 53 -1453 -19
-2148 -233 -2252 -1144 -4382 -2619 -6130 -359 -424 -833 -903 -1261 -1271
-2436 -2094 -5632 -3052 -8825 -2643 -2900 371 -5542 1855 -7380 4144 -1397
1741 -2243 3832 -2444 6045 -35 386 -44 600 -44 1035 -1 436 9 650 44 1035
167 1851 786 3623 1807 5175 639 973 1419 1837 2321 2572 1529 1246 3352 2068
5291 2388 447 73 952 126 1380 143 194 8 808 6 991 -3z"/>
<path d="M12729 21997 c-254 -487 -396 -817 -537 -1247 -288 -878 -448 -1758
-522 -2865 -6 -88 -13 -374 -15 -635 -4 -496 -3 -496 30 -5 46 678 150 1360
317 2065 140 595 363 1243 607 1765 63 134 272 525 281 525 11 0 213 -421 283
-590 689 -1645 906 -3534 626 -5447 -76 -522 -186 -1023 -345 -1577 -67 -236
-263 -838 -284 -876 -8 -13 -9 -13 -14 0 -231 661 -548 1304 -919 1860 -829
1243 -1942 2135 -3252 2609 -434 156 -898 274 -1365 345 -245 38 -280 41 -280
26 0 -13 97 -519 124 -646 8 -40 38 -161 65 -270 297 -1185 836 -2229 1494
-2898 l139 -141 -101 115 c-418 479 -752 1055 -1017 1756 -131 345 -255 785
-339 1205 -45 219 -107 608 -99 620 5 8 244 -47 440 -101 1512 -416 2710
-1284 3579 -2595 291 -439 519 -875 720 -1380 70 -176 225 -630 225 -659 0
-14 -9 -12 -57 13 -505 253 -1297 455 -2113 538 -250 26 -995 25 -1220 0 -698
-79 -1263 -231 -1845 -496 -242 -110 -449 -225 -748 -415 -211 -134 -235 -152
-220 -164 10 -7 122 -66 248 -131 127 -65 327 -168 445 -229 761 -391 1647
-658 2415 -728 233 -21 737 -24 935 -5 518 49 997 170 1350 341 58 28 96 47
85 44 -406 -136 -794 -200 -1270 -211 -937 -21 -1885 204 -2870 682 -217 105
-475 244 -475 256 0 10 190 96 386 174 482 194 944 304 1524 362 222 22 891
25 1105 5 653 -61 1408 -235 1875 -431 264 -112 437 -208 730 -406 420 -284
719 -436 1142 -580 399 -136 729 -208 1178 -257 158 -18 855 -17 1015 0 349
38 665 96 1000 182 593 153 999 312 1705 668 179 90 329 167 333 171 8 8 -419
240 -681 370 -612 305 -1271 527 -1652 555 l-75 6 55 -14 c344 -82 811 -286
1315 -573 267 -153 508 -304 498 -313 -21 -21 -500 -202 -748 -283 -207 -68
-334 -103 -587 -161 -576 -133 -948 -180 -1428 -179 -607 0 -1074 70 -1575
238 -193 64 -435 161 -435 174 0 4 33 17 73 30 120 39 373 135 527 201 820
350 1560 849 2174 1466 1018 1021 1651 2306 1916 3889 21 127 37 231 37 231
-9 7 -663 -119 -839 -161 -929 -222 -1751 -618 -2388 -1151 -118 -98 -302
-276 -383 -369 -50 -57 -39 -48 60 47 291 280 657 533 1085 748 237 120 332
163 550 245 440 168 982 303 1471 366 92 12 170 20 173 17 2 -3 -14 -79 -36
-169 -501 -2003 -1665 -3493 -3395 -4344 -115 -57 -269 -128 -341 -159 -215
-91 -530 -203 -540 -193 -3 3 20 96 51 208 262 954 408 1834 466 2799 16 254
15 1011 0 1260 -45 735 -141 1377 -306 2045 -238 966 -631 1929 -1078 2640
-79 126 -308 455 -316 455 -4 0 -67 -118 -142 -263z"/>
<path d="M12450 9988 l-1 -343 -31 58 c-86 159 -275 248 -460 218 -172 -27
-303 -137 -357 -298 -62 -185 -18 -393 110 -521 132 -132 345 -166 518 -85 71
34 164 126 196 195 l25 53 0 -142 c0 -120 2 -143 15 -143 13 0 15 82 15 675 0
593 -2 675 -15 675 -13 0 -15 -45 -15 -342z m-338 -99 c163 -34 290 -159 327
-320 15 -62 13 -185 -3 -244 -67 -254 -319 -385 -562 -294 -244 92 -344 427
-201 672 84 143 269 222 439 186z"/>
<path d="M13255 10260 c-37 -41 24 -97 63 -58 18 18 14 56 -7 68 -27 14 -35
13 -56 -10z"/>
<path d="M15435 10260 c-37 -41 24 -97 63 -58 18 18 14 56 -7 68 -27 14 -35
13 -56 -10z"/>
<path d="M8180 9620 c0 -561 2 -640 15 -640 13 0 15 75 17 596 l3 596 289
-506 c158 -279 293 -505 299 -503 6 2 139 229 296 505 157 276 289 502 294
502 4 0 7 -268 7 -595 0 -522 2 -595 15 -595 13 0 15 78 15 641 0 591 -1 640
-17 637 -10 -2 -133 -208 -312 -524 -163 -287 -298 -520 -301 -519 -3 2 -138
237 -300 524 -162 286 -301 520 -307 521 -10 0 -13 -134 -13 -640z"/>
<path d="M10465 9916 c-80 -19 -142 -56 -201 -118 -138 -145 -172 -387 -79
-574 88 -180 280 -277 483 -245 95 14 167 47 227 102 65 60 43 74 -28 16 -207
-169 -533 -101 -654 137 -23 44 -52 157 -53 199 0 16 27 17 421 17 l421 0 -7
63 c-24 217 -156 370 -349 406 -73 14 -116 13 -181 -3z m177 -27 c173 -37 289
-170 323 -371 l6 -38 -406 0 c-223 0 -405 3 -405 8 0 4 7 37 14 73 36 167 148
288 301 325 65 16 102 17 167 3z"/>
<path d="M14334 9916 c-113 -26 -193 -78 -261 -170 -111 -151 -119 -406 -17
-568 146 -231 493 -276 693 -89 27 25 31 34 21 46 -10 12 -16 9 -42 -20 -69
-80 -234 -128 -356 -106 -220 41 -354 207 -354 441 0 234 134 400 354 441 122
22 287 -26 356 -106 26 -29 32 -32 42 -20 22 26 -79 106 -175 139 -69 23 -187
29 -261 12z"/>
<path d="M16608 9920 c-114 -20 -216 -92 -272 -190 l-31 -55 -3 123 c-2 99 -5
122 -17 122 -13 0 -15 -63 -15 -470 0 -396 2 -470 14 -470 12 0 15 51 18 298
4 264 7 304 25 358 55 168 181 256 368 258 115 1 181 -21 246 -81 94 -87 109
-163 109 -555 0 -240 2 -278 15 -278 13 0 15 39 15 293 0 160 -5 321 -11 356
-29 182 -148 286 -338 296 -42 2 -97 0 -123 -5z"/>
<path d="M18053 9920 c-87 -16 -173 -56 -247 -115 -15 -11 -17 -18 -9 -26 8
-8 20 -5 45 14 174 131 432 139 542 16 46 -50 66 -121 66 -231 l0 -88 -224 0
c-198 0 -232 -2 -291 -21 -87 -27 -138 -76 -161 -155 -30 -103 -1 -200 77
-268 61 -52 125 -70 244 -70 152 1 247 45 322 151 l33 47 0 -97 c0 -80 3 -97
15 -97 13 0 15 46 15 354 0 307 -2 361 -17 407 -23 70 -90 139 -158 163 -61
21 -182 28 -252 16z m397 -572 c0 -107 -2 -116 -30 -164 -38 -67 -108 -128
-179 -155 -43 -17 -78 -22 -151 -23 -89 -1 -101 2 -163 32 -77 38 -112 81
-126 155 -15 82 13 167 70 210 65 48 120 56 357 57 l222 0 0 -112z"/>
<path d="M13270 9450 c0 -411 2 -470 15 -470 13 0 15 59 15 470 0 411 -2 470
-15 470 -13 0 -15 -59 -15 -470z"/>
<path d="M15450 9450 c0 -411 2 -470 15 -470 13 0 15 59 15 470 0 411 -2 470
-15 470 -13 0 -15 -59 -15 -470z"/>
<path d="M8668 5731 c-107 -35 -188 -105 -235 -206 -24 -52 -28 -72 -28 -155
0 -83 4 -103 29 -158 37 -81 122 -161 203 -193 80 -30 201 -37 279 -14 72 21
143 63 150 90 2 11 3 76 2 145 -3 109 -5 125 -20 128 -16 3 -18 -10 -20 -135
l-3 -138 -55 -30 c-52 -28 -61 -30 -170 -30 -106 0 -119 2 -168 28 -70 37
-128 97 -160 166 -38 81 -38 201 0 282 32 70 90 129 160 166 45 23 68 28 155
31 93 4 106 2 159 -22 32 -15 67 -34 76 -43 15 -13 21 -14 31 -4 19 20 -42 67
-119 90 -82 26 -188 27 -266 2z"/>
<path d="M9760 5370 c0 -373 0 -380 20 -380 19 0 20 7 20 130 l0 130 153 0
154 0 92 -130 c76 -106 97 -130 117 -130 24 0 24 1 -14 53 -21 28 -64 89 -95
134 l-57 81 45 22 c155 75 179 312 42 411 -67 49 -121 59 -309 59 l-168 0 0
-380z m428 310 c78 -44 117 -146 92 -240 -16 -62 -50 -103 -107 -130 -43 -21
-66 -24 -210 -28 l-163 -4 0 217 0 217 173 -4 c162 -3 175 -4 215 -28z"/>
<path d="M11158 5731 c-108 -35 -188 -106 -235 -206 -24 -52 -28 -72 -28 -155
0 -124 30 -195 116 -274 83 -77 146 -100 274 -100 128 0 191 23 274 100 86 79
116 150 116 274 0 83 -4 103 -29 158 -37 81 -122 161 -203 193 -81 31 -208 36
-285 10z m283 -50 c74 -35 125 -86 161 -159 30 -60 33 -76 33 -152 0 -76 -3
-92 -33 -152 -36 -73 -86 -123 -161 -160 -40 -20 -61 -23 -156 -23 -95 0 -116
3 -156 23 -145 72 -222 228 -190 384 24 112 113 215 220 252 69 24 221 17 282
-13z"/>
<path d="M12214 5732 c4 -10 62 -181 129 -378 104 -303 127 -359 144 -362 24
-4 15 -26 158 387 58 167 106 306 108 307 1 2 57 -153 124 -344 101 -290 124
-347 140 -350 25 -4 8 -44 159 396 112 331 122 363 102 360 -18 -3 -36 -49
-135 -338 -63 -184 -118 -338 -122 -343 -4 -4 -61 148 -127 338 -104 301 -122
345 -139 345 -18 0 -36 -43 -140 -340 -65 -188 -121 -343 -124 -345 -4 -2 -59
150 -122 338 -103 303 -119 342 -139 345 -18 3 -21 0 -16 -16z"/>
<path d="M13983 5736 c-91 -30 -143 -95 -143 -181 0 -107 58 -154 248 -204
181 -48 227 -82 227 -172 0 -83 -59 -136 -166 -148 -110 -13 -225 15 -286 71
-22 20 -43 17 -43 -6 0 -21 73 -66 140 -87 76 -23 178 -25 250 -3 170 51 199
254 47 328 -29 14 -104 39 -167 56 -171 46 -210 79 -210 174 0 91 85 148 220
148 73 0 181 -29 196 -53 7 -13 24 -1 24 17 0 9 -25 26 -57 41 -69 32 -212 42
-280 19z"/>
<path d="M14990 5370 c0 -373 0 -380 20 -380 19 0 20 7 20 185 l0 185 265 0
265 0 0 -185 c0 -178 1 -185 20 -185 20 0 20 7 20 380 0 373 0 380 -20 380
-19 0 -20 -7 -20 -180 l0 -180 -265 0 -265 0 0 180 c0 173 -1 180 -20 180 -20
0 -20 -7 -20 -380z"/>
<path d="M16498 5731 c-108 -35 -188 -106 -235 -206 -24 -52 -28 -72 -28 -155
0 -124 30 -195 116 -274 83 -77 146 -100 274 -100 128 0 191 23 274 100 86 79
116 150 116 274 0 83 -4 103 -29 158 -37 81 -122 161 -203 193 -81 31 -208 36
-285 10z m283 -50 c74 -35 125 -86 161 -159 30 -60 33 -76 33 -152 0 -76 -3
-92 -33 -152 -36 -73 -86 -123 -161 -160 -40 -20 -61 -23 -156 -23 -95 0 -116
3 -156 23 -145 72 -222 228 -190 384 24 112 113 215 220 252 69 24 221 17 282
-13z"/>
<path d="M17650 5370 c0 -373 0 -380 20 -380 19 0 20 7 20 130 l0 130 153 0
c187 0 238 12 301 73 104 99 95 287 -17 368 -67 49 -121 59 -309 59 l-168 0 0
-380z m428 310 c78 -44 117 -146 92 -240 -16 -62 -50 -103 -107 -130 -43 -21
-66 -24 -210 -28 l-163 -4 0 217 0 217 173 -4 c162 -3 175 -4 215 -28z"/>
</g>
</svg>
