<?xml version="1.0" standalone="yes"?>
<svg xmlns="http://www.w3.org/2000/svg" width="260" height="2504">
<path style="fill:#19953c; stroke:none;" d="M1298 7.42432C1268.82 11.2571 1238.42 9.3584 1209 12.1697C1140.23 18.7417 1071.87 30.302 1005 47.8843C706.266 126.433 444.799 318.555 277.692 578C199.311 699.691 142.339 836.473 111.79 978C50.5416 1261.75 88.93 1559.68 222.258 1818C271.907 1914.19 335.633 2002.83 408.17 2083C479.473 2161.8 562.706 2230.79 652 2288.31C762.488 2359.47 884.002 2411.73 1011 2445.12C1167.2 2486.18 1331.32 2493.72 1491 2472.72C1752.33 2438.35 1999.71 2314.66 2188 2130.99C2425.42 1899.38 2568.13 1564.81 2559.99 1232C2556.37 1084.45 2530.2 939.335 2477.58 801C2341.96 444.483 2038.22 167.557 1674 58.28C1584.73 31.4958 1492.79 16.2634 1400 9.91064C1367.23 7.66699 1330.73 3.12524 1298 7.42432M1289 57.2854C1319.97 53.6304 1354.03 56.7905 1385 58.9106C1467.67 64.5706 1548.64 75.9871 1629 97.1157C2009.95 197.283 2321.29 493.148 2448 865C2495.44 1004.22 2515.38 1153.36 2508.96 1300C2496.13 1593.24 2371.22 1875.3 2165 2084C2080.33 2169.68 1981.77 2240.49 1876 2297.69C1744.19 2368.98 1598.22 2409.93 1450 2427.71C1325.82 2442.61 1197.32 2434.33 1075 2409C948.944 2382.9 827.908 2335.14 717 2269.99C612.239 2208.45 517.527 2130.08 436.17 2040C330.544 1923.05 248.993 1783.78 197.344 1635C93.6163 1336.21 115.332 997.952 256.809 715C402.478 423.661 667.179 200.637 979 106.72C1050.21 85.2729 1124.01 70.5657 1198 63.1689C1228.21 60.1489 1258.96 60.8308 1289 57.2854M1281 102.424C1251.06 106.356 1220.16 105.935 1190 109.166C1130.65 115.523 1071.49 127.441 1014 143.424C752.993 215.993 524.603 382.251 372.344 606C297.275 716.317 242.958 840.673 210.627 970C145.7 1229.71 176.792 1508.3 293.258 1749C380.941 1930.22 520.347 2087.92 688 2199C792.366 2268.14 907.892 2320.27 1029 2352.12C1173.58 2390.13 1325.03 2399.18 1473 2379.72C1603.62 2362.54 1730.97 2322.14 1848 2261.74C2212.22 2073.75 2454.96 1688.78 2464.99 1279C2474.65 883.993 2277.82 500.715 1944 285.692C1845.32 222.13 1738.07 174.004 1625 142.576C1540.36 119.05 1453.53 106.791 1366 102.961C1338.55 101.76 1308.34 98.833 1281 102.424M1301 114.285C1331.7 110.662 1365.31 114.81 1396 116.911C1487.76 123.192 1578.26 139.623 1666 167.656C1991.55 271.669 2258.06 524.556 2379.58 844C2426.79 968.127 2451.42 1101.41 2453 1234C2455.15 1414.97 2412.88 1598.92 2329.74 1760C2158.49 2091.79 1825.18 2329.86 1452 2369.83C1286.01 2387.62 1116.58 2372.03 958 2318C841.526 2278.31 731.829 2219.75 634 2145.12C501.566 2044.08 391.673 1913.05 315.258 1765C184.129 1510.94 154.145 1208.78 233 934C270.894 801.953 332.935 676.921 415.375 567C566.691 365.245 785.859 216.079 1030 151.884C1090.36 136.014 1151.91 125.179 1214 119.17C1242.86 116.377 1272.32 117.671 1301 114.285M1287 277C1184.49 444.495 1165 645.658 1165 837L1166 837C1166.98 719.068 1187.06 594.349 1226.69 483C1237.05 453.907 1247.79 424.827 1261.26 397C1269.6 379.764 1281.48 362.922 1288 345L1290 345C1296.52 367.62 1311.38 390.075 1320.58 412C1336.88 450.846 1349.41 491.297 1360.12 532C1402.63 693.706 1400.34 866.403 1364.42 1029C1356.44 1065.15 1346.39 1100.58 1335.72 1136C1330.1 1154.66 1325.1 1175.73 1316 1193C1243.88 971.358 1068.49 789.192 842 727.849C806.694 718.286 769.543 709.884 733 707C747.044 815.748 785.092 929.595 846 1021C867.694 1053.56 893.301 1090.64 926 1113C920.217 1104.79 911.917 1098.52 905.286 1091C891.159 1074.98 878.042 1057.89 866.344 1040C826.113 978.49 799.948 910.605 780.849 840C771.791 806.518 762.493 769.776 761 735C913.181 764.513 1050.17 851.309 1142.12 976C1194.3 1046.77 1230.33 1125.6 1257 1209C1107.15 1146.7 937.614 1127.31 782 1182.69C729.411 1201.41 681.196 1227.84 635 1259L635 1261C684.521 1281.62 729.475 1311.52 780 1330.57C881.254 1368.76 994.412 1385.12 1101 1361.58C1131.82 1354.77 1159.09 1343.04 1188 1331L1188 1330C1158.39 1338.08 1129.79 1346.75 1099 1349.83C1013.33 1358.4 927.039 1345.18 846 1316.31C802.889 1300.95 764.176 1278.23 723 1259C873.368 1187.75 1056.73 1184.35 1211 1248.01C1250.57 1264.34 1283.2 1290.48 1320 1311.57C1361.19 1335.18 1406.64 1352.33 1453 1362.58C1558.33 1385.84 1669.49 1374.68 1771 1339.3C1823.97 1320.84 1874.42 1296.09 1924 1270L1924 1269C1906.08 1261.28 1889.34 1250.21 1872 1241.26C1813.59 1211.11 1744.08 1177.38 1677 1176L1677 1177C1726.55 1186.61 1772.3 1210.47 1816 1234.86C1833.25 1244.49 1850.53 1259.24 1869 1266L1869 1267C1833.04 1276.83 1799.32 1294.56 1763 1304.12C1641.25 1336.13 1507.57 1343.24 1391 1288C1532.52 1241.95 1659.2 1152 1743.97 1029C1786.48 967.337 1817.45 898.779 1838.42 827C1849.8 788.067 1860.8 746.573 1864 706C1839.4 707.944 1814.06 714.232 1790 719.576C1712.28 736.837 1636.03 767.11 1571 813.579C1541.9 834.375 1509.94 858.851 1490 889C1501.65 880.722 1511.11 867.817 1522 858.286C1541.72 841.023 1563.55 825.918 1586 812.449C1639.85 780.141 1699.78 757.947 1761 744.424C1786.16 738.867 1811.75 736.69 1837 732C1830.28 751.808 1826.33 772.907 1820.28 793C1808.85 830.958 1793.93 868.768 1775.74 904C1698.18 1054.27 1565.8 1166.68 1405 1219C1471.37 985.14 1480.86 738.573 1403.33 506C1384.16 448.471 1359.89 392.461 1329.42 340C1317.23 318.993 1303.94 294.539 1287 277M1189 1329L1190 1330L1189 1329M1245 1471L1245 1538L1244 1538C1236.48 1512.46 1201.53 1504 1180 1516.46C1162.36 1526.68 1155.06 1546.32 1157.17 1566C1159.05 1583.56 1170.86 1599.72 1188 1604.96C1208.22 1611.14 1239.67 1602.99 1244 1579L1245 1579L1245 1606L1249 1606L1249 1471L1245 1471M1326.32 1477.05C1321.86 1479.81 1326.17 1486.95 1330.77 1484.71C1336.1 1482.11 1331.17 1474.04 1326.32 1477.05M1544.32 1477.05C1539.86 1479.81 1544.17 1486.95 1548.77 1484.71C1554.1 1482.11 1549.17 1474.04 1544.32 1477.05M817 1478L817 1606L821 1606L821 1488L822 1488C832.873 1513.98 850.357 1538.51 864.281 1563C868.404 1570.25 873.597 1585.51 882 1588L938 1488L939 1488L939 1606L943 1606L943 1478C934.536 1479.45 929.093 1496.09 925.15 1503L896.15 1554C891.055 1562.93 884.105 1572.19 881 1582C862.583 1559.6 850.058 1529.22 835.719 1504C831.643 1496.83 825.702 1479.42 817 1478M1093 1589C1084.02 1593.18 1078.42 1600.66 1068 1602.54C1040.65 1607.47 1017.07 1586.15 1017 1559L1100 1559C1100 1546.73 1097.18 1534.45 1088.81 1525C1073.1 1507.27 1042.81 1505.75 1026.09 1523.04C1015.58 1533.92 1012.66 1548.4 1013.01 1563C1013.61 1587.35 1033.8 1606.88 1058 1607C1067.75 1607.05 1095.01 1603.21 1093 1589M1477 1589C1460.17 1596.84 1449.44 1608.6 1429 1600.54C1390.18 1585.22 1394.47 1518.36 1439 1515.09C1456.22 1513.83 1462.83 1522.39 1477 1529C1479.29 1512.77 1446.6 1509.77 1436 1511.44C1409.6 1515.59 1396.94 1539.07 1398.04 1564C1399.1 1588.12 1419.13 1606.89 1443 1607C1452.74 1607.05 1478.99 1603.06 1477 1589M1632 1534L1631 1534L1631 1512L1627 1512L1627 1606L1631 1606C1631 1584.62 1625.24 1553.3 1635.91 1534C1647.6 1512.85 1684.9 1505.92 1698.65 1529C1710.51 1548.92 1704 1583.53 1704 1606L1708 1606L1708 1558C1708 1546.56 1708.38 1534.79 1701.36 1525C1685.4 1502.73 1640.7 1506.69 1632 1534M1781 1528L1782 1528C1795.41 1515.28 1824.72 1507.04 1838.47 1524.04C1845.43 1532.65 1845 1543.57 1845 1554C1832.7 1554 1820.29 1553.5 1808 1554.04C1786.4 1554.99 1763.49 1575.37 1781.53 1596.91C1797.05 1615.43 1834.15 1608.7 1844 1588L1845 1588L1845 1606L1849 1606L1849 1550C1849 1537.86 1848.33 1525.59 1838 1517.39C1826.2 1508.04 1807.18 1509.6 1794 1514.83C1788.45 1517.02 1778.27 1520.86 1781 1528M1327 1512L1327 1606L1331 1606L1331 1512L1327 1512M1545 1512L1545 1606L1549 1606L1549 1512L1545 1512M1096 1555L1017 1555C1018.07 1502.92 1094.93 1502.98 1096 1555M1195 1515.3C1212.03 1512.84 1229.31 1518.78 1238.52 1534C1253.42 1558.63 1241.91 1598.24 1211 1602.7C1197.19 1604.69 1182.18 1601.4 1172.46 1590.83C1150.63 1567.05 1160.48 1520.28 1195 1515.3M1845 1558C1845 1565.94 1846.55 1575.62 1843.2 1583C1834.23 1602.74 1799.65 1612.68 1784.39 1593.96C1766.95 1572.56 1793.46 1558.01 1812 1558L1845 1558M899 1661.42C876.269 1664.41 855.497 1669.52 837 1684.01C788.042 1722.37 785.75 1801.82 831 1843.91C855.799 1866.98 891.112 1874.81 924 1870.71C939.219 1868.82 953.811 1863.8 967 1855.99C1047.26 1808.43 1022.34 1680.65 932 1663.61C921.392 1661.61 909.768 1660.01 899 1661.42M534 1663L534 1870L555 1870L555 1706L556 1706C560.723 1718.97 570.004 1731.11 576.989 1743L616.989 1811C621.547 1818.76 630.218 1842.13 640.015 1842.94C652.252 1843.95 659.488 1821.92 664.799 1813C678.42 1790.13 691.529 1766.95 705.011 1744C712.221 1731.72 722.7 1718.58 727 1705L728 1705L728 1870L749 1870L749 1663C744.057 1663 735.676 1661.39 731.329 1664.03C722.757 1669.22 716.076 1688.37 711.011 1697C696.185 1722.24 681.815 1747.76 666.989 1773C659.076 1786.47 647.717 1801.09 643 1816L641 1816C636.409 1801.5 625.002 1787.07 617.201 1774C601.969 1748.48 586.947 1722.78 572.15 1697C567.178 1688.34 560.238 1669.22 551.671 1664.03C547.324 1661.39 538.943 1663 534 1663M1066 1663L1066 1870C1115.4 1870 1175.55 1879.49 1219 1850.92C1281.29 1809.96 1273.11 1707.48 1207 1675.26C1165.19 1654.88 1111.15 1663 1066 1663M1310 1663L1310 1870L1456 1870L1456 1851L1332 1851L1332 1774L1439 1774L1439 1756L1332 1756L1332 1682L1452 1682L1452 1663L1310 1663M1509 1663L1509 1870L1531 1870L1531 1804L1583 1804L1602.83 1804.6L1615.34 1821L1637.98 1853L1650.3 1868.97L1674 1870L1624 1798C1676.86 1788.9 1684.78 1711.96 1648 1681.33C1627.06 1663.88 1598.85 1663 1573 1663L1509 1663M1723 1663L1723 1870L1745 1870L1745 1703C1780.35 1741.5 1811.26 1785.78 1843.42 1827C1851.01 1836.72 1858.7 1846.37 1866.4 1856C1869.72 1860.15 1873.23 1866.46 1878.04 1868.97C1882.81 1871.47 1890.73 1870 1896 1870L1896 1663L1875 1663L1875 1830L1842.2 1790L1774.8 1705L1751.8 1676L1740.96 1664.03L1723 1663M2025 1663L2003.86 1710L1952.69 1822L1931 1870C1936.31 1870 1950.07 1872.46 1953.93 1868.4C1962.61 1859.23 1967.53 1839.6 1972.58 1828C1975.25 1821.85 1977.26 1814.36 1985 1814.02C2010.56 1812.91 2036.41 1814 2062 1814C2069.94 1814 2084.87 1811.13 2091.9 1815.03C2096.28 1817.46 2097.97 1823.71 2099.86 1828L2112.86 1857C2114.4 1860.47 2116.14 1866.8 2119.42 1868.97C2124.39 1872.26 2136.17 1870 2142 1870L2070.22 1713L2053.74 1677L2046.61 1664.03L2025 1663M902 1680.29C969.831 1672.28 1013.81 1749.45 985.029 1807C970.782 1835.49 943.341 1849.12 913 1852.71C841.48 1861.18 797.75 1778.18 832.453 1720C847.563 1694.67 873.973 1683.59 902 1680.29M1088 1851L1088 1682C1123.36 1682 1164.38 1675.92 1197 1692.27C1252.71 1720.19 1254.14 1804.42 1203 1837.3C1170.34 1858.3 1124.9 1851 1088 1851M1531 1786L1531 1682C1560.05 1682 1597.28 1675.81 1624 1689.37C1655.66 1705.44 1658.5 1756.6 1628 1775.53C1601.08 1792.24 1561.23 1786 1531 1786M2037 1686L2086 1797L1987 1797L1998.69 1769L2020.58 1720L2037 1686M872.667 1929.33L873.333 1929.67L872.667 1929.33z"/>
<path style="fill:#121212; stroke:none;" d="M906 1968L903 1968C903 1975.13 904.463 1984.07 902.682 1990.99C899.558 2003.12 878.084 2002.7 869 1999.96C840.939 1991.49 835.991 1954.38 860 1938.36C865.912 1934.42 873.813 1931.83 881 1932.21C890.43 1932.71 896.809 1937.13 905 1941C905.167 1930.07 883.981 1928.37 876 1929.17C855.983 1931.17 840.079 1946.32 840.079 1967C840.079 1991.72 863.369 2008.56 887 2004.39C892.699 2003.38 900.708 2001.74 904.397 1996.79C908.909 1990.73 906 1975.34 906 1968z"/>
<path style="fill:#19953c; stroke:none;" d="M886.667 1929.33L887.333 1929.67L886.667 1929.33z"/>
<path style="fill:#121212; stroke:none;" d="M976 1929L976 2005L980 2005L980 1979C987.875 1979 1004.26 1975.9 1010.82 1980.6C1019.21 1986.63 1021.97 2003.22 1033 2005L1015 1977C1033.75 1973.66 1038.48 1946.25 1023.91 1934.94C1011.55 1925.36 990.587 1929 976 1929z"/>
<path style="fill:#19953c; stroke:none;" d="M1009.67 1929.33L1010.33 1929.67L1009.67 1929.33M1120.67 1929.33L1121.33 1929.67L1120.67 1929.33z"/>
<path style="fill:#121212; stroke:none;" d="M1122 1929.44C1071.45 1937.4 1085.08 2012.42 1135 2004.56C1185.55 1996.6 1171.92 1921.58 1122 1929.44z"/>
<path style="fill:#19953c; stroke:none;" d="M1135.67 1929.33L1136.33 1929.67L1135.67 1929.33z"/>
<path style="fill:#121212; stroke:none;" d="M1221 1929C1227.32 1948.42 1234.21 1967.63 1240.67 1987C1241.82 1990.46 1244.27 2004.36 1248.91 2004.36C1253.24 2004.36 1255.58 1991.23 1256.81 1988C1263.34 1970.74 1270.14 1952.8 1275 1935L1276 1935C1280.17 1953.01 1288.15 1970.47 1294 1988C1295.06 1991.17 1297.81 2004.36 1302 2004.36C1306.33 2004.36 1308.89 1990.27 1310 1987C1316.59 1967.65 1323.68 1948.43 1330 1929C1323.15 1930.19 1321.91 1940.27 1320 1946C1314.1 1963.7 1307.77 1981.25 1302 1999C1294.5 1982.07 1289.19 1963.57 1283.33 1946C1281.36 1940.08 1280.05 1930.17 1273 1929L1250 1998C1245.76 1993.62 1244.56 1986.69 1242.67 1981C1238.78 1969.34 1235.17 1957.54 1230.95 1946C1228.9 1940.4 1227.67 1930.16 1221 1929z"/>
<path style="fill:#19953c; stroke:none;" d="M1277 1929L1278 1930L1277 1929M1401.67 1929.33L1402.33 1929.67L1401.67 1929.33z"/>
<path style="fill:#121212; stroke:none;" d="M1383 1992C1383.3 1998.96 1391.05 2001.73 1397 2003.36C1408.83 2006.59 1431.09 2006.3 1434.61 1991C1441.56 1960.75 1398.79 1972.29 1389.17 1954C1384.88 1945.84 1391.37 1937.02 1399 1934.13C1410.38 1929.81 1420.85 1933.66 1431 1939C1432.04 1931.99 1422.43 1930.59 1417 1929.62C1405.12 1927.48 1387.82 1930.2 1384.53 1944C1377.6 1973.12 1421.81 1962.8 1430.68 1981C1434.89 1989.64 1426.74 1997.8 1419 2000.23C1405.45 2004.47 1394.32 1998.98 1383 1992z"/>
<path style="fill:#19953c; stroke:none;" d="M1416.67 1929.33L1417.33 1929.67L1416.67 1929.33z"/>
<path style="fill:#121212; stroke:none;" d="M1499 1929L1499 2005L1503 2005L1503 1968L1556 1968L1556 2005L1560 2005L1560 1929L1556 1929L1556 1965L1503 1965L1503 1929L1499 1929z"/>
<path style="fill:#19953c; stroke:none;" d="M1654.67 1929.33L1655.33 1929.67L1654.67 1929.33z"/>
<path style="fill:#121212; stroke:none;" d="M1656 1929.44C1605.45 1937.4 1619.08 2012.42 1669 2004.56C1719.55 1996.6 1705.92 1921.58 1656 1929.44z"/>
<path style="fill:#19953c; stroke:none;" d="M1669.67 1929.33L1670.33 1929.67L1669.67 1929.33z"/>
<path style="fill:#121212; stroke:none;" d="M1765 1929L1765 2005L1769 2005L1769 1979C1782.38 1979 1798.96 1981.71 1811 1974.64C1825.05 1966.38 1824.7 1942.04 1810.99 1933.61C1798.27 1925.81 1779.23 1929 1765 1929z"/>
<path style="fill:#19953c; stroke:none;" d="M1798.67 1929.33L1799.33 1929.67L1798.67 1929.33M867.667 1930.33L868.333 1930.67L867.667 1930.33M892 1930L893 1931L892 1930M1014 1930L1015 1931L1014 1930M1116 1930L1117 1931L1116 1930M1140 1930L1141 1931L1140 1930M1221 1930L1222 1931L1221 1930M1225 1930L1226 1931L1225 1930M1325 1930L1326 1931L1325 1930M1329 1930L1330 1931L1329 1930M1398 1930L1399 1931L1398 1930M1421 1930L1422 1931L1421 1930M1650 1930L1651 1931L1650 1930M1674 1930L1675 1931L1674 1930M1803 1930L1804 1931L1803 1930M864 1931L865 1932L864 1931M895 1931L896 1932L895 1931M1017 1931L1018 1932L1017 1931M1113 1931L1114 1932L1113 1931M1143 1931L1144 1932L1143 1931M1272 1931L1273 1932L1272 1931M1395 1931L1396 1932L1395 1931M1424 1931L1425 1932L1424 1931M1647 1931L1648 1932L1647 1931M1677 1931L1678 1932L1677 1931M1806 1931L1807 1932L1806 1931M862 1932L863 1933L862 1932M876 1932L876 1933L884 1933L876 1932M897 1932L898 1933L897 1932M980 1932L980 1933L1007 1933L980 1932M1111 1932L1112 1933L1111 1932M1124 1932L1124 1933L1133 1933L1124 1932M1145 1932L1146 1933L1145 1932M1278 1932L1279 1933L1278 1932M1393 1932L1394 1933L1393 1932M1405 1932L1405 1933L1409 1933L1405 1932M1411 1932L1411 1933L1414 1933L1411 1932M1645 1932L1646 1933L1645 1932M1658 1932L1658 1933L1667 1933L1658 1932M1679 1932L1680 1933L1679 1932M1769 1932L1769 1933L1796 1933L1769 1932M860 1933L861 1934L860 1933M870 1933L871 1934L870 1933M889 1933L890 1934L889 1933M899 1933L900 1934L899 1933M1012 1933L1013 1934L1012 1933M1119 1933L1120 1934L1119 1933M1137 1933L1138 1934L1137 1933M1222 1933L1223 1934L1222 1933M1226 1933L1227 1934L1226 1933M1324 1933L1325 1934L1324 1933M1328 1933L1329 1934L1328 1933M1400 1933L1401 1934L1400 1933M1418.67 1933.33L1419.33 1933.67L1418.67 1933.33M1653 1933L1654 1934L1653 1933M1671 1933L1672 1934L1671 1933M1801 1933L1802 1934L1801 1933M858 1934L859 1935L858 1934M867 1934L868 1935L867 1934M893 1934L894 1935L893 1934M901 1934L902 1935L901 1934M1015 1934L1016 1935L1015 1934M1023 1934L1025 1936L1023 1934M1107 1934L1108 1935L1107 1934M1140 1934L1141 1935L1140 1934M1149 1934L1150 1935L1149 1934M1271 1934L1272 1935L1271 1934M1390 1934L1391 1935L1390 1934M1397 1934L1398 1935L1397 1934M1422 1934L1423 1935L1422 1934M1641 1934L1642 1935L1641 1934M1674 1934L1675 1935L1674 1934M1683 1934L1684 1935L1683 1934M1804 1934L1805 1935L1804 1934M1812 1934L1814 1936L1812 1934M864 1935L865 1936L864 1935M895 1935L896 1936L895 1935M1105 1935L1106 1936L1105 1935M1113 1935L1114 1936L1113 1935M1143 1935L1144 1936L1143 1935M1151 1935L1152 1936L1151 1935M1275 1935L1276 1936L1275 1935M1279 1935L1280 1936L1279 1935M1323 1935L1324 1936L1323 1935M1395 1935L1396 1936L1395 1935M1424 1935L1425 1936L1424 1935M1432.33 1935.67L1432.67 1936.33L1432.33 1935.67M1639 1935L1640 1936L1639 1935M1647 1935L1648 1936L1647 1935M1677 1935L1678 1936L1677 1935M1685 1935L1686 1936L1685 1935M855 1936L856 1937L855 1936M862 1936L863 1937L862 1936M897 1936L898 1937L897 1936M1111 1936L1112 1937L1111 1936M1145 1936L1146 1937L1145 1936M1223 1936L1224 1937L1223 1936M1227 1936L1228 1937L1227 1936M1327 1936L1328 1937L1327 1936M1645 1936L1646 1937L1645 1936M1679 1936L1680 1937L1679 1936M905 1937L907 1939L905 1937M1021 1937L1025 1941L1021 1937M1109 1937L1110 1938L1109 1937M1147 1937L1148 1938L1147 1937M1270 1937L1271 1938L1270 1937M1274 1937L1275 1938L1274 1937M1276 1937L1277 1938L1276 1937M1280 1937L1281 1938L1280 1937M1387 1937L1388 1938L1387 1937M1392 1937L1391 1939L1392 1937M1428 1937L1429 1938L1428 1937M1643 1937L1644 1938L1643 1937M1681 1937L1682 1938L1681 1937M1810 1937L1814 1941L1810 1937M1027 1938L1029 1940L1027 1938M1101 1938L1098 1942L1101 1938M1155 1938L1159 1942L1155 1938M1322 1938L1323 1939L1322 1938M1635 1938L1632 1942L1635 1938M1689 1938L1693 1942L1689 1938M1816 1938L1818 1940L1816 1938M851 1939L849 1942L851 1939M1106 1939L1105 1941L1106 1939M1150 1939L1152 1941L1150 1939M1224 1939L1225 1940L1224 1939M1228 1939L1229 1940L1228 1939M1273 1939L1274 1940L1273 1939M1326 1939L1327 1940L1326 1939M1640 1939L1639 1941L1640 1939M1684 1939L1686 1941L1684 1939M856 1940L855 1942L856 1940M903 1940L904 1941L903 1940M905 1940L906 1941L905 1940M1269 1940L1270 1941L1269 1940M1277 1940L1278 1941L1277 1940M1281 1940L1282 1941L1281 1940M1385 1940L1386 1941L1385 1940M1029 1941L1030 1942L1029 1941M1321 1941L1322 1942L1321 1941M1325 1941L1326 1942L1325 1941M1389 1941L1390 1942L1389 1941M1818 1941L1819 1942L1818 1941M1225 1942L1226 1943L1225 1942M1229 1942L1230 1943L1229 1942M1272 1942L1273 1943L1272 1942M1026 1943L1027 1944L1026 1943M1030 1943L1031 1944L1030 1943M1268 1943L1269 1944L1268 1943M1278 1943L1279 1944L1278 1943M1282 1943L1283 1944L1282 1943M1384 1943L1385 1944L1384 1943M1388 1943L1389 1944L1388 1943M1815 1943L1816 1944L1815 1943M1819 1943L1820 1944L1819 1943M852 1944L851 1946L852 1944M1230 1944L1231 1945L1230 1944M1320 1944L1321 1945L1320 1944M1324 1944L1325 1945L1324 1944M846 1945L847 1946L846 1945M1027 1945L1028 1946L1027 1945M1031 1945L1032 1946L1031 1945M1095 1945L1096 1946L1095 1945M1100 1945L1099 1947L1100 1945M1156 1945L1158 1947L1156 1945M1161 1945L1162 1946L1161 1945M1226 1945L1227 1946L1226 1945M1271 1945L1272 1946L1271 1945M1629 1945L1630 1946L1629 1945M1634 1945L1633 1947L1634 1945M1690 1945L1692 1947L1690 1945M1695 1945L1696 1946L1695 1945M1816 1945L1817 1946L1816 1945M1820 1945L1821 1946L1820 1945M1267 1946L1268 1947L1267 1946M1279 1946L1280 1947L1279 1946M1283 1946L1284 1947L1283 1946M1231 1947L1232 1948L1231 1947M1319 1947L1320 1948L1319 1947M1323 1947L1324 1948L1323 1947M849 1948L850 1949L849 1948M1227 1948L1228 1949L1227 1948M1266 1948L1267 1949L1266 1948M1270 1948L1271 1949L1270 1948M1387 1948L1388 1949L1387 1948M1028 1949L1029 1950L1028 1949M1280 1949L1281 1950L1280 1949M1284 1949L1285 1950L1284 1949M1817 1949L1818 1950L1817 1949M1032 1950L1032 1958L1033 1958L1032 1950M1092 1950L1093 1951L1092 1950M1232 1950L1233 1951L1232 1950M1318 1950L1319 1951L1318 1950M1322 1950L1323 1951L1322 1950M1626 1950L1627 1951L1626 1950M1821 1950L1821 1958L1822 1958L1821 1950M1096 1951L1097 1952L1096 1951M1160 1951L1161 1952L1160 1951M1228 1951L1229 1952L1228 1951M1265 1951L1266 1952L1265 1951M1269 1951L1270 1952L1269 1951M1630 1951L1631 1952L1630 1951M1694 1951L1695 1952L1694 1951M1281 1952L1282 1953L1281 1952M1285 1952L1286 1953L1285 1952M842 1953L843 1954L842 1953M1091 1953L1092 1954L1091 1953M1165 1953L1166 1954L1165 1953M1233 1953L1234 1954L1233 1953M1317 1953L1318 1954L1317 1953M1321 1953L1322 1954L1321 1953M1384 1953L1385 1954L1384 1953M1388 1953L1389 1954L1388 1953M1625 1953L1626 1954L1625 1953M1699 1953L1700 1954L1699 1953M846 1954L847 1955L846 1954M1095 1954L1096 1955L1095 1954M1161 1954L1162 1955L1161 1954M1229 1954L1230 1955L1229 1954M1264 1954L1265 1955L1264 1954M1268 1954L1269 1955L1268 1954M1282 1954L1283 1955L1282 1954M1629 1954L1630 1955L1629 1954M1695 1954L1696 1955L1695 1954M1286 1955L1287 1956L1286 1955M1389 1955L1390 1956L1389 1955M841 1956L842 1957L841 1956M1090 1956L1091 1957L1090 1956M1094.33 1956.67L1094.67 1957.33L1094.33 1956.67M1162.33 1956.67L1162.67 1957.33L1162.33 1956.67M1166 1956L1167 1957L1166 1956M1234 1956L1235 1957L1234 1956M1316 1956L1317 1957L1316 1956M1320 1956L1321 1957L1320 1956M1385 1956L1386 1957L1385 1956M1624 1956L1625 1957L1624 1956M1628.33 1956.67L1628.67 1957.33L1628.33 1956.67M1696.33 1956.67L1696.67 1957.33L1696.33 1956.67M1700 1956L1701 1957L1700 1956M845 1957L846 1958L845 1957M1230 1957L1231 1958L1230 1957M1263 1957L1264 1958L1263 1957M1267 1957L1268 1958L1267 1957M1283 1957L1284 1958L1283 1957M1028 1958L1029 1959L1028 1958M1287 1958L1288 1959L1287 1958M1392 1958L1394 1960L1392 1958M1817 1958L1818 1959L1817 1958M1235 1959L1236 1960L1235 1959M1315 1959L1316 1960L1315 1959M1319 1959L1320 1960L1319 1959M1387 1959L1389 1961L1387 1959M1231 1960L1232 1961L1231 1960M1262 1960L1263 1961L1262 1960M1266 1960L1267 1961L1266 1960M1284 1960L1285 1961L1284 1960M1288 1960L1289 1961L1288 1960M1395 1960L1396 1961L1395 1960M840.333 1961.67L840.667 1962.33L840.333 1961.67M844.333 1961.67L844.667 1962.33L844.333 1961.67M1089.33 1961.67L1089.67 1962.33L1089.33 1961.67M1093.33 1961.67L1093.67 1962.33L1093.33 1961.67M1163.33 1961.67L1163.67 1962.33L1163.33 1961.67M1167.33 1961.67L1167.67 1962.33L1167.33 1961.67M1397 1961L1398 1962L1397 1961M1623.33 1961.67L1623.67 1962.33L1623.33 1961.67M1627.33 1961.67L1627.67 1962.33L1627.33 1961.67M1697.33 1961.67L1697.67 1962.33L1697.33 1961.67M1701.33 1961.67L1701.67 1962.33L1701.33 1961.67M1027 1962L1028 1963L1027 1962M1031 1962L1032 1963L1031 1962M1236 1962L1237 1963L1236 1962M1265 1962L1266 1963L1265 1962M1314 1962L1315 1963L1314 1962M1318 1962L1319 1963L1318 1962M1399 1962L1400 1963L1399 1962M1816 1962L1817 1963L1816 1962M1820 1962L1821 1963L1820 1962M1232 1963L1233 1964L1232 1963M1261 1963L1262 1964L1261 1963M1285 1963L1286 1964L1285 1963M1289 1963L1290 1964L1289 1963M1392 1963L1393 1964L1392 1963M1402 1963L1403 1964L1402 1963M1026 1964L1027 1965L1026 1964M1394 1964L1395 1965L1394 1964M1406 1964L1407 1965L1406 1964M1815 1964L1816 1965L1815 1964M1030 1965L1031 1966L1030 1965M1237 1965L1238 1966L1237 1965M1264 1965L1265 1966L1264 1965M1313 1965L1314 1966L1313 1965M1317 1965L1318 1966L1317 1965M1397 1965L1398 1966L1397 1965M1410 1965L1411 1966L1410 1965M1025 1966L1026 1967L1025 1966M1233 1966L1234 1967L1233 1966M1260 1966L1261 1967L1260 1966M1286 1966L1287 1967L1286 1966M1290 1966L1291 1967L1290 1966M1399 1966L1400 1967L1399 1966M1414 1966L1415 1967L1414 1966M1814 1966L1815 1967L1814 1966M903 1967L903 1968L906 1968L905 1997L906 1997C907.829 1990.81 910.099 1969.36 903 1967M1403 1967L1404 1968L1403 1967M1418 1967L1419 1968L1418 1967M1028 1968L1029 1969L1028 1968M1238 1968L1239 1969L1238 1968M1259 1968L1260 1969L1259 1968M1263 1968L1264 1969L1263 1968M1312 1968L1313 1969L1312 1968M1316 1968L1317 1969L1316 1968M1407 1968L1408 1969L1407 1968M1421 1968L1422 1969L1421 1968M1817 1968L1818 1969L1817 1968M1234 1969L1235 1970L1234 1969M1287 1969L1288 1970L1287 1969M1291 1969L1292 1970L1291 1969M1411 1969L1412 1970L1411 1969M1423 1969L1424 1970L1423 1969M1021 1970L1022 1971L1021 1970M1415 1970L1416 1971L1415 1970M1810 1970L1811 1971L1810 1970M840.333 1971.67L840.667 1972.33L840.333 1971.67M844.333 1971.67L844.667 1972.33L844.333 1971.67M1089.33 1971.67L1089.67 1972.33L1089.33 1971.67M1093.33 1971.67L1093.67 1972.33L1093.33 1971.67M1163.33 1971.67L1163.67 1972.33L1163.33 1971.67M1167.33 1971.67L1167.67 1972.33L1167.33 1971.67M1235 1971L1236 1972L1235 1971M1239 1971L1240 1972L1239 1971M1258 1971L1259 1972L1258 1971M1262 1971L1263 1972L1262 1971M1311 1971L1312 1972L1311 1971M1315 1971L1316 1972L1315 1971M1418 1971L1419 1972L1418 1971M1623.33 1971.67L1623.67 1972.33L1623.33 1971.67M1627.33 1971.67L1627.67 1972.33L1627.33 1971.67M1697.33 1971.67L1697.67 1972.33L1697.33 1971.67M1701.33 1971.67L1701.67 1972.33L1701.33 1971.67M1018 1972L1019 1973L1018 1972M1288 1972L1289 1973L1288 1972M1292 1972L1293 1973L1292 1972M1421 1972L1422 1973L1421 1972M1807 1972L1808 1973L1807 1972M1016 1973L1017 1974L1016 1973M1423 1973L1424 1974L1423 1973M1430 1973L1433 1976L1430 1973M1805 1973L1806 1974L1805 1973M1013 1974L1014 1975L1013 1974M1022 1974L1023 1975L1022 1974M1236 1974L1237 1975L1236 1974M1240 1974L1241 1975L1240 1974M1257 1974L1258 1975L1257 1974M1261 1974L1262 1975L1261 1974M1314 1974L1315 1975L1314 1974M1425 1974L1426 1975L1425 1974M1802 1974L1803 1975L1802 1974M1008.67 1975.33L1009.33 1975.67L1008.67 1975.33M1020 1975L1021 1976L1020 1975M1289 1975L1290 1976L1289 1975M1293 1975L1294 1976L1293 1975M1797.67 1975.33L1798.33 1975.67L1797.67 1975.33M1809 1975L1810 1976L1809 1975M845 1976L846 1977L845 1976M1018 1976L1019 1977L1018 1976M1094.33 1976.67L1094.67 1977.33L1094.33 1976.67M1162.33 1976.67L1162.67 1977.33L1162.33 1976.67M1309 1976L1310 1977L1309 1976M1628.33 1976.67L1628.67 1977.33L1628.33 1976.67M1696.33 1976.67L1696.67 1977.33L1696.33 1976.67M1807 1976L1808 1977L1807 1976M841 1977L842 1978L841 1977M1015 1977L1016 1978L1015 1977M1090 1977L1091 1978L1090 1977M1166 1977L1167 1978L1166 1977M1237 1977L1238 1978L1237 1977M1241 1977L1242 1978L1241 1977M1256 1977L1257 1978L1256 1977M1260 1977L1261 1978L1260 1977M1290 1977L1291 1978L1290 1977M1313 1977L1314 1978L1313 1977M1624 1977L1625 1978L1624 1977M1700 1977L1701 1978L1700 1977M1804 1977L1805 1978L1804 1977M1294 1978L1295 1979L1294 1978M1800.67 1978.33L1801.33 1978.67L1800.67 1978.33M846 1979L847 1980L846 1979M1095 1979L1096 1980L1095 1979M1161 1979L1162 1980L1161 1979M1308 1979L1309 1980L1308 1979M1430 1979L1431 1980L1430 1979M1434 1979L1435 1980L1434 1979M1629 1979L1630 1980L1629 1979M1695 1979L1696 1980L1695 1979M842 1980L843 1981L842 1980M1016 1980L1017 1981L1016 1980M1091 1980L1092 1981L1091 1980M1165 1980L1166 1981L1165 1980M1238 1980L1239 1981L1238 1980M1242 1980L1243 1981L1242 1980M1255 1980L1256 1981L1255 1980M1259 1980L1260 1981L1259 1980M1291 1980L1292 1981L1291 1980M1312 1980L1313 1981L1312 1980M1625 1980L1626 1981L1625 1980M1699 1980L1700 1981L1699 1980M1012 1981L1013 1982L1012 1981M1295 1981L1296 1982L1295 1981M1096 1982L1097 1983L1096 1982M1160 1982L1161 1983L1160 1982M1307 1982L1308 1983L1307 1982M1311 1982L1312 1983L1311 1982M1431 1982L1432 1983L1431 1982M1435 1982L1435 1989L1436 1989L1435 1982M1630 1982L1631 1983L1630 1982M1694 1982L1695 1983L1694 1982M1018 1983L1019 1984L1018 1983M1092 1983L1093 1984L1092 1983M1239 1983L1240 1984L1239 1983M1243 1983L1244 1984L1243 1983M1254 1983L1255 1984L1254 1983M1258 1983L1259 1984L1258 1983M1292 1983L1293 1984L1292 1983M1296 1983L1297 1984L1296 1983M1626 1983L1627 1984L1626 1983M849 1985L850 1986L849 1985M1306 1985L1307 1986L1306 1985M1310 1985L1311 1986L1310 1985M1240 1986L1241 1987L1240 1986M1244 1986L1245 1987L1244 1986M1253 1986L1254 1987L1253 1986M1257 1986L1258 1987L1257 1986M1293 1986L1294 1987L1293 1986M1297 1986L1298 1987L1297 1986M1021 1987L1022 1988L1021 1987M1099 1987L1101 1989L1099 1987M1633 1987L1635 1989L1633 1987M846 1988L847 1989L846 1988M851 1988L853 1990L851 1988M1017 1988L1018 1989L1017 1988M1095 1988L1096 1989L1095 1988M1156 1988L1157 1989L1156 1988M1161 1988L1162 1989L1161 1988M1252 1988L1253 1989L1252 1988M1256 1988L1257 1989L1256 1988M1305 1988L1306 1989L1305 1988M1309 1988L1310 1989L1309 1988M1431.33 1988.67L1431.67 1989.33L1431.33 1988.67M1629 1988L1630 1989L1629 1988M1690 1988L1691 1989L1690 1988M1695 1988L1696 1989L1695 1988M1241 1989L1242 1990L1241 1989M1245 1989L1246 1990L1245 1989M1294 1989L1295 1990L1294 1989M1298 1989L1299 1990L1298 1989M1023 1990L1024 1991L1023 1990M1019 1991L1020 1992L1019 1991M1251 1991L1252 1992L1251 1991M1255 1991L1256 1992L1255 1991M1304 1991L1305 1992L1304 1991M1308 1991L1309 1992L1308 1991M849 1992L852 1995L849 1992M855 1992L857 1994L855 1992M1098 1992L1102 1996L1098 1992M1158 1992L1155 1996L1158 1992M1242 1992L1243 1993L1242 1992M1246 1992L1247 1993L1246 1992M1295 1992L1296 1993L1295 1992M1299 1992L1300 1993L1299 1992M1384 1992L1387 1995L1384 1992M1434 1992L1435 1993L1434 1992M1632 1992L1636 1996L1632 1992M1692 1992L1689 1996L1692 1992M1105 1993L1107 1995L1105 1993M1151 1993L1150 1995L1151 1993M1382 1993L1383 1994L1382 1993M1429 1993L1430 1994L1429 1993M1639 1993L1641 1995L1639 1993M1685 1993L1684 1995L1685 1993M1026 1994L1027 1995L1026 1994M1250 1994L1251 1995L1250 1994M1254 1994L1255 1995L1254 1994M1303 1994L1304 1995L1303 1994M1307 1994L1308 1995L1307 1994M1433 1994L1434 1995L1433 1994M900 1995L901 1996L900 1995M1022 1995L1023 1996L1022 1995M1243 1995L1244 1996L1243 1995M1247 1995L1248 1996L1247 1995M1296 1995L1297 1996L1296 1995M1300 1995L1301 1996L1300 1995M1382 1995L1385 1998L1382 1995M1109 1996L1110 1997L1109 1996M1147 1996L1148 1997L1147 1996M1389 1996L1390 1997L1389 1996M1643 1996L1644 1997L1643 1996M1681 1996L1682 1997L1681 1996M855 1997L856 1998L855 1997M862 1997L863 1998L862 1997M897 1997L898 1998L897 1997M1028 1997L1029 1998L1028 1997M1111 1997L1112 1998L1111 1997M1145 1997L1146 1998L1145 1997M1249 1997L1250 1998L1249 1997M1253 1997L1254 1998L1253 1997M1297 1997L1298 1998L1297 1997M1302 1997L1301 1999L1302 1997M1306 1997L1307 1998L1306 1997M1391 1997L1392 1998L1391 1997M1425 1997L1426 1998L1425 1997M1645 1997L1646 1998L1645 1997M1679 1997L1680 1998L1679 1997M864 1998L865 1999L864 1998M895 1998L896 1999L895 1998M1024 1998L1025 1999L1024 1998M1105 1998L1106 1999L1105 1998M1113 1998L1114 1999L1113 1998M1143 1998L1144 1999L1143 1998M1151 1998L1152 1999L1151 1998M1244 1998L1245 1999L1244 1998M1393 1998L1394 1999L1393 1998M1639 1998L1640 1999L1639 1998M1647 1998L1648 1999L1647 1998M1677 1998L1678 1999L1677 1998M1685 1998L1686 1999L1685 1998M858 1999L859 2000L858 1999M867 1999L868 2000L867 1999M901 1999L902 2000L901 1999M1107 1999L1108 2000L1107 1999M1140 1999L1141 2000L1140 1999M1149 1999L1150 2000L1149 1999M1387 1999L1388 2000L1387 1999M1396 1999L1397 2000L1396 1999M1421 1999L1422 2000L1421 1999M1641 1999L1642 2000L1641 1999M1674 1999L1675 2000L1674 1999M1683 1999L1684 2000L1683 1999M860 2000L861 2001L860 2000M870 2000L871 2001L870 2000M889 2000L890 2001L889 2000M899 2000L900 2001L899 2000M1119 2000L1120 2001L1119 2000M1137 2000L1138 2001L1137 2000M1252 2000L1253 2001L1252 2000M1298 2000L1299 2001L1298 2000M1305 2000L1306 2001L1305 2000M1389 2000L1390 2001L1389 2000M1399 2000L1400 2001L1399 2000M1418 2000L1419 2001L1418 2000M1427 2000L1428 2001L1427 2000M1653 2000L1654 2001L1653 2000M1671 2000L1672 2001L1671 2000M862 2001L863 2002L862 2001M876 2001L876 2002L884 2002L876 2001M897 2001L898 2002L897 2001M1031 2001L1032 2002L1031 2001M1111 2001L1112 2002L1111 2001M1124 2001L1124 2002L1133 2002L1124 2001M1145 2001L1146 2002L1145 2001M1245 2001L1246 2002L1245 2001M1391 2001L1392 2002L1391 2001M1404 2001L1404 2002L1408 2002L1404 2001M1410 2001L1410 2002L1414 2002L1410 2001M1645 2001L1646 2002L1645 2001M1658 2001L1658 2002L1667 2002L1658 2001M1679 2001L1680 2002L1679 2001M864 2002L865 2003L864 2002M895 2002L896 2003L895 2002M1027 2002L1028 2003L1027 2002M1113 2002L1114 2003L1113 2002M1143 2002L1144 2003L1143 2002M1393 2002L1394 2003L1393 2002M1423 2002L1424 2003L1423 2002M1647 2002L1648 2003L1647 2002M1677 2002L1678 2003L1677 2002M867.667 2003.33L868.333 2003.67L867.667 2003.33M891.667 2003.33L892.333 2003.67L891.667 2003.33M1116 2003L1117 2004L1116 2003M1140 2003L1141 2004L1140 2003M1251 2003L1252 2004L1251 2003M1299 2003L1300 2004L1299 2003M1304 2003L1305 2004L1304 2003M1396.67 2003.33L1397.33 2003.67L1396.67 2003.33M1421 2003L1422 2004L1421 2003M1650 2003L1651 2004L1650 2003M1674 2003L1675 2004L1674 2003M872.667 2004.33L873.333 2004.67L872.667 2004.33M886.667 2004.33L887.333 2004.67L886.667 2004.33M1033 2004L1034 2005L1033 2004M1120.67 2004.33L1121.33 2004.67L1120.67 2004.33M1135 2004L1136 2005L1135 2004M1246 2004L1247 2005L1246 2004M1401 2004L1402 2005L1401 2004M1416.67 2004.33L1417.33 2004.67L1416.67 2004.33M1654.67 2004.33L1655.33 2004.67L1654.67 2004.33M1669 2004L1670 2005L1669 2004z"/>
</svg>
