<svg xmlns="http://www.w3.org/2000/svg" version="1.0" width="2366.000000pt" height="2569.000000pt" viewBox="0 0 2366.000000 2569.000000" preserveAspectRatio="xMidYMid meet">

<g transform="translate(0.000000,2569.000000) scale(0.100000,-0.100000)" fill="#72b957" stroke="none">
<path d="M11054 21798 c-554 -1029 -860 -1819 -1139 -2939 -223 -898 -373 -1942 -435 -3034 -18 -315 -29 -952 -22 -1200 l7 -240 8 190 c63 1522 359 3180 802 4485 101 297 249 691 342 909 137 324 517 1068 550 1078 14 5 200 -363 307 -607 948 -2150 1303 -4636 1025 -7170 -130 -1187 -392 -2342 -813 -3585 -112 -331 -132 -385 -144 -385 -4 0 -27 57 -50 128 -24 70 -86 233 -137 362 -839 2113 -2207 3817 -3930 4892 -1098 685 -2295 1107 -3714 1308 -113 16 -207 27 -209 25 -3 -2 32 -197 78 -432 79 -409 180 -853 256 -1122 416 -1485 1074 -2739 1911 -3643 80 -87 147 -158 150 -158 8 0 -12 26 -77 100 -594 669 -1152 1707 -1498 2785 -136 425 -245 848 -332 1292 -54 278 -130 747 -130 804 0 24 -19 27 260 -38 705 -164 1398 -413 2020 -724 1313 -658 2420 -1652 3274 -2938 395 -595 710 -1195 984 -1876 172 -428 357 -985 328 -985 -3 0 -82 36 -176 80 -786 368 -1878 627 -3020 716 -271 22 -986 25 -1230 6 -1249 -97 -2336 -416 -3348 -981 -225 -126 -803 -490 -803 -507 0 -7 598 -320 1036 -541 138 -69 410 -194 606 -278 918 -394 1867 -631 2829 -707 200 -16 863 -16 1045 0 658 57 1221 181 1700 372 128 52 275 118 262 119 -4 1 -61 -15 -126 -34 -251 -74 -686 -158 -991 -190 -541 -57 -1226 -38 -1824 51 -536 79 -1220 257 -1716 444 -463 175 -1137 484 -1463 671 -154 88 -176 104 -162 117 20 18 347 162 530 235 846 335 1626 491 2633 528 952 34 1911 -94 2947 -395 662 -192 1115 -406 1663 -784 497 -344 933 -572 1469 -766 1253 -454 2610 -541 4011 -256 715 146 1387 359 2034 646 360 160 1278 614 1278 633 0 9 -672 368 -915 489 -821 409 -1583 677 -2168 762 -134 20 -173 20 -96 0 356 -90 908 -319 1389 -575 420 -223 1060 -607 1060 -635 0 -25 -714 -300 -1090 -420 -238 -75 -410 -122 -715 -193 -812 -190 -1354 -260 -2015 -259 -1047 0 -1868 163 -2752 546 -21 9 -38 22 -38 29 0 7 86 41 203 81 900 305 1859 815 2647 1408 380 285 605 482 976 852 374 374 610 647 881 1014 135 183 385 558 500 752 553 927 970 2035 1203 3200 47 238 103 556 116 671 l6 57 -103 -19 c-57 -11 -219 -39 -359 -64 -349 -61 -423 -76 -745 -155 -1306 -319 -2443 -883 -3330 -1651 -134 -116 -340 -314 -367 -353 -12 -17 16 5 63 49 172 164 425 362 684 537 715 484 1546 845 2490 1082 328 82 742 161 1044 201 233 30 261 31 261 9 0 -25 -102 -428 -154 -605 -367 -1266 -910 -2344 -1651 -3276 -357 -449 -832 -928 -1295 -1304 -613 -499 -1358 -944 -2125 -1269 -294 -124 -724 -278 -744 -266 -6 4 -2 33 10 74 274 944 504 2062 613 2992 73 615 104 1103 113 1760 20 1542 -172 3008 -582 4434 -325 1132 -820 2274 -1352 3120 -78 124 -345 513 -414 604 -17 22 -18 21 -105 -140z" fill="#72b957"/>
</g>
</svg>