<?xml version="1.0" standalone="yes"?>
<svg xmlns="http://www.w3.org/2000/svg" width="4962" height="3509">
<path style="fill:#ffffff; stroke:none;" d="M0 0L0 3509L4962 3509L4962 0L0 0z"/>
<path style="fill:#17943b; stroke:none;" d="M2392 536.424C2361.81 540.389 2330.44 539.224 2300 542.17C2232.34 548.718 2164.5 561.216 2099 579.424C1806.52 660.728 1549.39 847.293 1384.69 1103C1185.43 1412.37 1136.08 1799.42 1245.03 2150C1284.3 2276.37 1346.06 2395.85 1423.42 2503C1493.01 2599.37 1577.51 2686.03 1672 2758.12C1805.04 2859.61 1956.29 2932.6 2118 2975.12C2271.21 3015.4 2434.31 3023.32 2591 3002.72C2717.21 2986.12 2840.91 2949.58 2956 2895.22C3094.81 2829.65 3223.19 2737.42 3327.91 2625C3548.3 2388.42 3672.91 2071.91 3664.99 1748C3660.74 1574.38 3620.17 1404.84 3547.69 1247C3400.5 926.438 3106.09 679.973 2768 583.579C2678.2 557.975 2585.23 542.041 2492 537.961C2459.55 536.541 2424.39 532.169 2392 536.424z"/>
<path style="fill:#ffffff; stroke:none;" d="M2404 586.424C2371.87 590.644 2338.4 589.034 2306 592.17C2237.78 598.772 2170 612.073 2104 630.424C1817.39 710.113 1567.02 901.667 1411.81 1155C1234.66 1444.14 1190.47 1804.41 1291.03 2128C1324.34 2235.19 1373.24 2337.32 1435 2431C1503.04 2534.19 1588.34 2627.04 1685 2704C1817.55 2809.53 1970.36 2884.14 2134 2927.12C2280.16 2965.5 2435.62 2972.36 2585 2952.72C2836.6 2919.63 3071.02 2802.93 3254 2627.96C3484.66 2407.4 3622.81 2081.75 3614.99 1762C3611.69 1627.32 3589.33 1493.95 3542.95 1367C3414.89 1016.54 3121.94 742.372 2765 635.28C2679.68 609.681 2591.7 594.983 2503 588.911C2471.17 586.732 2435.79 582.249 2404 586.424z"/>
<path style="fill:#17943b; stroke:none;" d="M2379 631.424C2356.32 634.404 2332.85 633.958 2310 636.17C2250.73 641.906 2191.59 652.742 2134 667.884C1900.6 729.255 1691.27 865.527 1538.42 1052C1451.51 1158.04 1384.01 1280.97 1340.67 1411C1216.68 1782.95 1294.21 2204.15 1545.44 2506C1620.51 2596.2 1709.33 2674.76 1808 2738.31C1908.8 2803.23 2020.08 2851.64 2136 2882.12C2280.77 2920.18 2432.92 2928.19 2581 2908.72C2952.35 2859.89 3283.47 2620.53 3450.73 2286C3523.86 2139.74 3562.83 1978.91 3569.96 1816C3583.28 1511.64 3465.71 1210.99 3258.91 989C3112.5 831.826 2917.23 717.684 2709 665.626C2633.49 646.748 2556.66 635.359 2479 631.961C2446.79 630.551 2411.06 627.213 2379 631.424z"/>
<path style="fill:#ffffff; stroke:none;" d="M2380 644.424C2357.63 647.363 2334.53 646.917 2312 649.169C2257.45 654.623 2203.19 664.178 2150 677.475C1919.55 735.087 1709.37 867.448 1557.44 1050C1304.25 1354.19 1226.91 1779.91 1359.69 2153C1397.86 2260.23 1452.38 2360.45 1519.88 2452C1593.59 2551.95 1685.89 2638.6 1788 2708.97C1893.05 2781.38 2011.62 2835.68 2135 2868.12C2279.91 2906.22 2430.66 2915.22 2579 2895.72C2947.69 2847.24 3280.67 2606.95 3442.74 2272C3512.04 2128.79 3550.02 1973.67 3556.96 1815C3570.96 1495.11 3437.23 1170.28 3203 952.089C3068.38 826.683 2906.43 733.894 2729 684.576C2646.73 661.708 2562.16 648.688 2477 644.961C2445.74 643.593 2411.12 640.337 2380 644.424z"/>
<path style="fill:#17943b; stroke:none;" d="M2391 806C2369.45 852.159 2344.86 895.75 2327.69 944C2295.6 1034.18 2281.85 1128.26 2272.83 1223C2269.61 1256.82 2269 1291 2269 1325C2269 1339.68 2266.85 1358.97 2271 1373L2272 1373C2272 1249.41 2293.19 1121.61 2334.69 1005C2344.08 978.633 2354.06 952.211 2366.26 927C2374.59 909.776 2386.48 892.902 2393 875L2395 875C2401.07 896.085 2415.04 916.479 2423.4 937C2442.17 983.127 2457.62 1030.53 2469.12 1079C2506.78 1237.9 2504.1 1405.17 2467.65 1564C2455.75 1615.88 2443.63 1672.6 2421 1721C2352.19 1509.53 2186.24 1327.86 1971 1263.28C1929.05 1250.69 1882.1 1236.91 1838 1236C1839.27 1265.45 1848.99 1297.46 1856.13 1326C1876.58 1407.82 1907.91 1486.7 1955 1557C1970.56 1580.22 1988.24 1602.24 2008 1622C2015.93 1629.93 2024.49 1640.55 2035 1645C2028 1635.07 2017.37 1627.07 2009.17 1618C1993.88 1601.09 1980.26 1582.24 1968.05 1563C1911.16 1473.35 1879.27 1368.87 1866 1264C1884.08 1270.12 1903.61 1273.04 1922 1278.42C1961.33 1289.93 2000.9 1304.79 2037 1324.31C2157.77 1389.62 2251.02 1490.55 2312.25 1613C2331.72 1651.95 2351.14 1694.39 2361 1737C2208.62 1673.64 2036.42 1656.53 1879 1714.05C1829.07 1732.3 1782.98 1758.35 1739 1788L1739 1790C1789.19 1810.9 1834.8 1841.25 1886 1860.57C1987.43 1898.86 2102.48 1914.76 2209 1890.35C2239.91 1883.27 2266.98 1871.08 2296 1859L2296 1858C2281.59 1860.13 2267.28 1866.73 2253 1870.12C2227.98 1876.05 2201.66 1879.84 2176 1880.96C2097.83 1884.38 2018.07 1870.37 1945 1842.58C1904.64 1827.22 1867.88 1806.18 1829 1788C1977.58 1717.6 2158.09 1714.29 2311 1775.45C2356.03 1793.46 2392.73 1823.83 2435 1846.69C2493.26 1878.2 2559.94 1897.46 2626 1902.09C2734.08 1909.67 2841.25 1887.82 2940 1843.31C2960.96 1833.86 2981.44 1823.53 3002 1813.25C3010.51 1808.99 3022.75 1805.29 3029 1798C2981.14 1769.77 2930.34 1745 2878 1726.31C2846.48 1715.05 2812.73 1705 2779 1705L2779 1706C2830.82 1712.69 2881.37 1741.85 2926 1767.28C2941.28 1775.99 2956.6 1788.79 2973 1795L2973 1796C2944.79 1803.71 2918.12 1817.81 2890 1826.28C2815.78 1848.64 2737.58 1862.22 2660 1856.91C2621.61 1854.28 2583.85 1847.38 2547 1836.28C2530.44 1831.29 2513.87 1821 2497 1818L2497 1817C2542.64 1806.44 2588.62 1781.9 2629 1758.85C2769.41 1678.71 2875.35 1552.16 2929.69 1400C2942.73 1363.49 2952.99 1326.02 2960.6 1288C2964.09 1270.54 2968.95 1251.85 2969 1234C2934.13 1243.02 2897.98 1246.69 2863 1255.88C2794.95 1273.78 2729.21 1303.86 2672 1344.86C2651.86 1359.29 2633.5 1375.5 2616 1393C2607.94 1401.06 2597.5 1410.36 2593 1421C2602.71 1414.1 2610.23 1403.26 2619 1395.09C2633.57 1381.52 2649.62 1369.32 2666 1358.03C2722.52 1319.07 2786.7 1293.7 2853 1277.13C2880.99 1270.13 2912.02 1262.24 2941 1262C2903.88 1441.82 2791 1605.04 2630 1694.86C2593.31 1715.33 2552.24 1737.46 2511 1747C2515.52 1725.14 2522.96 1703.75 2528.12 1682C2539.92 1632.21 2549.4 1581.79 2555.72 1531C2577.1 1359.13 2560.23 1182.84 2503.34 1019C2483.92 963.052 2458.99 908.713 2428.4 858C2420.75 845.318 2412.46 833.054 2403.86 821C2400.17 815.831 2396.76 808.943 2391 806z"/>
<path style="fill:#ffffff; stroke:none;" d="M2510 1747L2511 1748L2510 1747z"/>
<path style="fill:#17943b; stroke:none;" d="M2350 2000L2350 2066L2349 2066C2340.58 2037.39 2300.17 2032.94 2279 2048.76C2264.09 2059.91 2260.29 2079.45 2262.17 2097C2266.64 2138.54 2335.99 2154.23 2349 2110L2350 2110L2350 2135L2354 2135L2354 2000L2350 2000M2430.6 2006.03C2426.18 2009.5 2431.62 2017.11 2436.57 2013.82C2442.07 2010.15 2435.56 2002.14 2430.6 2006.03M2648.6 2006.03C2644.18 2009.5 2649.62 2017.11 2654.57 2013.82C2660.07 2010.15 2653.56 2002.14 2648.6 2006.03M1922 2007L1922 2135L1926 2135L1926 2018L1927 2018C1937.87 2043.98 1955.36 2068.51 1969.28 2093C1971.84 2097.51 1979.3 2116.36 1985.01 2116.36C1991.15 2116.36 1998.22 2097.72 2000.86 2093C2014.62 2068.34 2032.1 2044.05 2043 2018L2044 2018L2044 2135L2048 2135L2048 2007C2039.34 2008.41 2034.16 2023.98 2030.15 2031L2001.15 2082C1996.06 2090.93 1989.11 2100.19 1986 2110L1984 2110C1981.11 2100.18 1974.21 2090.87 1969.15 2082L1940.15 2031C1936.03 2023.77 1930.95 2008.41 1922 2007M2200 2121L2200 2120L2196 2117C2170.9 2149.27 2122.76 2125.11 2122 2088L2205 2088C2205 2074.45 2202.11 2060.99 2191.91 2051.17C2170.39 2030.47 2132.62 2038.57 2121.45 2066C2114.07 2084.15 2116.83 2108.33 2130.3 2122.91C2148.32 2142.42 2183.05 2140.15 2200 2121M2580 2117C2564.8 2136.53 2534.46 2136.45 2518.3 2117.99C2503.99 2101.63 2503.7 2075.77 2517.47 2059C2521.84 2053.68 2527.55 2049.52 2534 2047.07C2541.01 2044.4 2548.59 2043.28 2556 2044.62C2565.57 2046.34 2574.03 2051.33 2580 2059C2586.22 2053.46 2578.11 2048.25 2573 2045.34C2562.52 2039.37 2548.69 2038.1 2537 2040.9C2491.32 2051.83 2491.32 2124.17 2537 2135.1C2548.55 2137.87 2562.67 2136.55 2573 2130.66C2578.11 2127.75 2586.22 2122.54 2580 2117M2737 2062L2736 2062L2736 2041L2732 2041L2732 2135L2736 2135C2736 2113.89 2730.44 2083.13 2740.9 2064C2752.95 2041.97 2789.44 2035.05 2803.65 2059C2815.35 2078.72 2809 2112.84 2809 2135L2813 2135L2813 2086C2813 2074.37 2813.53 2062.96 2806.36 2053C2790.89 2031.49 2745.45 2035.55 2737 2062M2950 2083C2937.01 2083 2923.98 2082.7 2911 2083.01C2889.65 2083.54 2870.01 2104.18 2885.22 2124.91C2899.52 2144.4 2939.03 2138.96 2949 2118L2950 2118L2950 2135L2954 2135L2954 2079C2954 2068.5 2954.31 2057.42 2946.79 2049.04C2935.53 2036.52 2913.35 2037.91 2899 2043.43C2895.24 2044.87 2884.21 2048.91 2884.21 2053.92C2884.21 2057.29 2888.57 2055.35 2890 2054.5C2900.15 2048.49 2909.75 2043.52 2922 2044.04C2944.6 2045 2950 2063.78 2950 2083M2432 2041L2432 2135L2436 2135L2436 2041L2432 2041M2650 2041L2650 2135L2654 2135L2654 2041L2650 2041z"/>
<path style="fill:#ffffff; stroke:none;" d="M2122 2084L2201 2084C2198.08 2047.25 2148.99 2026.77 2128.34 2063C2124.67 2069.44 2122.59 2076.64 2122 2084M2301 2044.46C2248.19 2053.8 2259.92 2140.07 2314 2131.56C2367.88 2123.08 2355.8 2034.78 2301 2044.46M2950 2087C2939.34 2087 2928.65 2086.75 2918 2087.01C2912.82 2087.14 2907.04 2087.67 2902 2088.9C2887.08 2092.54 2879.31 2110.66 2890.21 2122.96C2906.15 2140.93 2938.19 2131.54 2947.73 2112C2951.4 2104.47 2950 2095.17 2950 2087z"/>
<path style="fill:#17943b; stroke:none;" d="M1996 2190.43C1969.97 2194.16 1945.89 2205.16 1928.17 2225C1894.25 2263 1894.31 2326.51 1927.3 2365C1953.49 2395.56 1995.31 2405.7 2034 2399.73C2106.8 2388.48 2143.7 2303.76 2107.57 2241C2085.48 2202.61 2039 2184.27 1996 2190.43M1639 2192L1639 2399L1660 2399L1660 2237L1661 2237C1676.64 2273.28 1701.97 2308.03 1722.2 2342C1728.04 2351.8 1734.97 2373.53 1747.98 2372.98C1757.74 2372.57 1766.82 2348.82 1771.28 2341C1790.96 2306.49 1816.29 2272.47 1832 2236L1833 2236L1833 2399L1854 2399L1854 2192C1848.9 2192 1839.82 2190.25 1835.38 2193.03C1826.63 2198.49 1819.69 2218.08 1814.58 2227C1800.02 2252.39 1785.27 2277.68 1770.58 2303C1763.12 2315.85 1753.11 2329.04 1748 2343L1746 2343C1740.43 2330.07 1731.85 2318.19 1724.85 2306C1709.86 2279.88 1694.61 2253.87 1679.2 2228C1673.69 2218.75 1666.78 2198.75 1657.62 2193.03C1653.18 2190.25 1644.1 2192 1639 2192M2171 2192L2171 2400C2220.43 2400 2280.56 2409.08 2324 2380.66C2386.83 2339.54 2379.51 2237.06 2313 2203.81C2271.49 2183.06 2216.02 2192 2171 2192M2415 2192L2415 2400L2562 2400L2562 2380L2437 2380L2437 2303L2545 2303L2545 2284L2437 2284L2437 2211L2558 2211L2558 2192L2415 2192M2614 2192L2614 2399L2636 2399L2636 2333L2687 2333L2707.82 2334.6L2719.42 2350L2742.71 2383L2754.3 2397.97L2780 2399L2730 2328C2780.09 2310.95 2795.47 2237.74 2749 2206.36C2728.03 2192.19 2704.28 2192 2680 2192L2614 2192M2828 2192L2828 2399L2850 2399L2850 2233L2948.4 2357L2970.42 2385L2982.04 2397.97L3001 2399L3001 2192L2979 2192L2979 2358L2881.42 2235L2858.42 2206L2846.96 2193.03L2828 2192M3035 2399L3060 2399C3063.75 2385.99 3071.06 2373.31 3076.69 2361C3078.78 2356.43 3080.47 2348.9 3084.42 2345.6C3089.49 2341.37 3103.67 2344 3110 2344L3173 2344C3179.22 2344 3192.28 2341.52 3197.58 2345.03C3201.14 2347.38 3202.79 2354.25 3204.42 2358C3208.52 2367.39 3212.97 2376.64 3217.14 2386C3218.72 2389.55 3220.15 2395.68 3223.5 2397.97C3228.49 2401.4 3241.07 2399 3247 2399C3243.64 2380.14 3229.97 2359.35 3221.78 2342C3204.44 2305.27 3187.12 2268.28 3171 2231C3163.75 2214.23 3156.09 2181.78 3131.21 2192.6C3126.73 2194.56 3125.12 2201.95 3123.22 2206C3117.3 2218.62 3111.7 2231.38 3105.78 2244C3081.75 2295.25 3056.48 2346.64 3035 2399z"/>
<path style="fill:#ffffff; stroke:none;" d="M2003 2210.43C1983.21 2213.12 1964.67 2220.02 1950.09 2234.17C1892.66 2289.88 1942.52 2390.1 2021 2380.71C2036.07 2378.91 2050.42 2374.51 2063 2365.79C2133.83 2316.71 2089.15 2198.7 2003 2210.43M2193 2211L2193 2380C2232.33 2380 2277.86 2386.26 2312 2362.65C2360.24 2329.3 2353.26 2248.6 2302 2222.26C2269.45 2205.53 2228.42 2211 2193 2211M2636 2211L2636 2314C2665.21 2314 2702.14 2319.83 2729 2306.02C2759.63 2290.27 2762.74 2239.92 2733 2221.47C2706.07 2204.76 2666.25 2211 2636 2211M3141 2217C3121.74 2250.84 3106.96 2290.03 3092 2326L3190 2326L3157.31 2252L3141 2217z"/>
<path style="fill:#010101; stroke:none;" d="M2012 2496L2008 2496C2008 2503.15 2010.68 2517.13 2005.68 2522.79C1986.79 2544.15 1950.44 2520.86 1949.86 2497C1949.37 2476.47 1967.19 2461.55 1987 2462.01C1995.1 2462.2 1999.85 2466.48 2006.98 2469.21C2008.75 2469.9 2011.48 2469.65 2010.65 2467.02C2007.59 2457.18 1988.71 2457.91 1981 2458C1957 2458.29 1942.03 2480.31 1945.3 2503C1948.42 2524.65 1967.16 2534.03 1987 2534C1994.69 2533.99 2004.16 2532.74 2009.68 2526.67C2015.16 2520.64 2012 2503.77 2012 2496M2081 2458L2081 2534L2085 2534L2085 2509C2092.66 2509 2109.55 2505.83 2115.82 2510.49C2124.43 2516.89 2126.82 2533.6 2139 2534L2121 2507C2139.16 2500.7 2145.37 2474.06 2127.96 2462.56C2115.44 2454.29 2095.31 2458 2081 2458M2224 2458.46C2196.42 2463.44 2184.7 2498.26 2201.53 2520C2211.21 2532.5 2227.94 2536.25 2243 2533.54C2270.58 2528.56 2282.3 2493.74 2265.47 2472C2255.79 2459.5 2239.06 2455.75 2224 2458.46M2326 2458C2328.93 2477.85 2338.99 2497.98 2345.33 2517C2347.67 2524 2348.27 2533.71 2357 2534L2380 2465L2381 2465L2404 2534L2410 2534L2435 2458L2430 2458L2407 2526C2399.78 2509.71 2394.64 2491.91 2389 2475C2387.77 2471.31 2385.45 2459.05 2380.83 2458.47C2375.56 2457.8 2373.54 2470.44 2372.19 2474C2365.71 2491.12 2359.66 2508.6 2354 2526C2344.77 2505.18 2336.13 2480.17 2331 2458L2326 2458M2488 2520L2486 2523L2486 2524C2496.41 2533.5 2511.22 2536.48 2525 2533.32C2536.01 2530.79 2543.77 2520.39 2540.2 2509C2534.76 2491.68 2509.6 2496.99 2498.1 2486.66C2488.51 2478.04 2495.51 2466.5 2506 2463.22C2517.83 2459.52 2526.07 2465.5 2537 2468L2538 2464C2522 2454.7 2477.85 2455.13 2490.01 2485C2496.92 2501.98 2523.21 2494.6 2533.57 2508.04C2540.74 2517.35 2530.94 2526.94 2522 2529.24C2509.11 2532.56 2498.51 2526.48 2488 2520M2604 2458L2604 2534L2608 2534L2608 2497L2661 2497L2661 2534L2665 2534L2665 2458L2661 2458L2661 2493L2608 2493L2608 2458L2604 2458M2758 2458.46C2730.42 2463.44 2718.7 2498.26 2735.53 2520C2745.21 2532.5 2761.94 2536.25 2777 2533.54C2804.58 2528.56 2816.3 2493.74 2799.47 2472C2789.79 2459.5 2773.06 2455.75 2758 2458.46M2870 2458L2870 2534L2874 2534L2874 2509C2887.32 2509 2903.95 2511.44 2916 2504.47C2931.04 2495.76 2930.72 2470.68 2915.99 2461.96C2903.4 2454.5 2884.08 2458 2870 2458z"/>
<path style="fill:#ffffff; stroke:none;" d="M2085 2462L2085 2505C2096.98 2505 2113.29 2507.21 2124 2500.78C2136.83 2493.06 2136.48 2471.84 2123 2465C2112.09 2459.46 2096.86 2462 2085 2462M2226 2462.47C2181.95 2470.72 2196.37 2537.39 2240 2529.54C2285.39 2521.37 2270.67 2454.09 2226 2462.47M2760 2462.47C2715.95 2470.72 2730.37 2537.39 2774 2529.54C2819.38 2521.37 2804.67 2454.09 2760 2462.47M2874 2462L2874 2505C2885.98 2505 2902.29 2507.21 2913 2500.78C2925.83 2493.06 2925.48 2471.84 2912 2465C2901.09 2459.46 2885.86 2462 2874 2462z"/>
</svg>
